ISO-10303-21;
HEADER;
FILE_DESCRIPTION(('STEP AP214'),'1');
FILE_NAME('LED_RADIAL_SSL-LX3052YD_LUM','2025-07-14T01:24:20',(''),(''),'','','');
FILE_SCHEMA(('AUTOMOTIVE_DESIGN'));
ENDSEC;
DATA;
#1=SHAPE_DEFINITION_REPRESENTATION(#2,#3);
#2=PRODUCT_DEFINITION_SHAPE('',$,#4);
#3=SHAPE_REPRESENTATION('',(#197,#253,#847,#1442,#19),#11);
#4=PRODUCT_DEFINITION('design','example product_definition',#6,#5);
#5=PRODUCT_DEFINITION_CONTEXT('3D Mechanical Parts',#10,'design');
#6=PRODUCT_DEFINITION_FORMATION('1.0','first version',#8);
#7=APPLICATION_PROTOCOL_DEFINITION('international standard','automotive_design',2003,#10);
#8=PRODUCT('product','part','',(#9));
#9=PRODUCT_CONTEXT('3D Mechanical Parts',#10,'mechanical');
#10=APPLICATION_CONTEXT('Core Data for Automotive Mechanical Design Process');
#11=(GEOMETRIC_REPRESENTATION_CONTEXT(3) GLOBAL_UNCERTAINTY_ASSIGNED_CONTEXT((#12)) GLOBAL_UNIT_ASSIGNED_CONTEXT((#13,#14,#18)) REPRESENTATION_CONTEXT('ID1','3D'));
#12=UNCERTAINTY_MEASURE_WITH_UNIT(LENGTH_MEASURE(1.E-005),#13,'DISTANCE_ACCURACY_VALUE','Maximum model space distance between geometric entities at asserted connectivities');
#13=(LENGTH_UNIT() NAMED_UNIT(*) SI_UNIT(.MILLI.,.METRE.));
#14=(CONVERSION_BASED_UNIT('degree',#16) NAMED_UNIT(#15) PLANE_ANGLE_UNIT());
#15=DIMENSIONAL_EXPONENTS(0.,0.,0.,0.,0.,0.,0.);
#16=MEASURE_WITH_UNIT(PLANE_ANGLE_MEASURE(0.01745329252),#17);
#17=(NAMED_UNIT(*) PLANE_ANGLE_UNIT() SI_UNIT($,.RADIAN.));
#18=(NAMED_UNIT(*) SI_UNIT($,.STERADIAN.) SOLID_ANGLE_UNIT());
#19=AXIS2_PLACEMENT_3D('',#20,#21,#22);
#20=CARTESIAN_POINT('',(0.0,0.0,0.0));
#21=DIRECTION('',(0.0,0.0,1.0));
#22=DIRECTION('',(1.0,0.0,0.0));
#25=MECHANICAL_DESIGN_GEOMETRIC_PRESENTATION_REPRESENTATION($,(#249,#250,#251,#255,#286,#317,#370,#423,#476,#529,#582,#635,#688,#741,#794,#849,#880,#911,#964,#1017,#1070,#1123,#1176,#1229,#1282,#1335,#1388,#1444,#1513,#1582,#1631,#1684,#1737,#1790,#1842),#11);
#26=PRODUCT_CATEGORY_RELATIONSHIP('','',#27,#28);
#27=PRODUCT_CATEGORY('part','');
#28=PRODUCT_RELATED_PRODUCT_CATEGORY('','',(#8));
#34=PRESENTATION_STYLE_ASSIGNMENT((#35,#40));
#35=SURFACE_STYLE_USAGE(.BOTH.,#36);
#36=SURFACE_SIDE_STYLE('',(#37));
#37=SURFACE_STYLE_FILL_AREA(#38);
#38=FILL_AREA_STYLE('',(#39));
#39=FILL_AREA_STYLE_COLOUR('',#41);
#40=CURVE_STYLE('',#42,POSITIVE_LENGTH_MEASURE(0.1),#41);
#41=COLOUR_RGB('Aluminum',0.725,0.725,0.725);
#42=DRAUGHTING_PRE_DEFINED_CURVE_FONT('continuous');
#43=PRESENTATION_STYLE_ASSIGNMENT((#44,#49));
#44=SURFACE_STYLE_USAGE(.BOTH.,#45);
#45=SURFACE_SIDE_STYLE('',(#46));
#46=SURFACE_STYLE_FILL_AREA(#47);
#47=FILL_AREA_STYLE('',(#48));
#48=FILL_AREA_STYLE_COLOUR('',#50);
#49=CURVE_STYLE('',#51,POSITIVE_LENGTH_MEASURE(0.1),#50);
#50=COLOUR_RGB('Teal',0.0,0.588,0.588);
#51=DRAUGHTING_PRE_DEFINED_CURVE_FONT('continuous');
#52=PRESENTATION_STYLE_ASSIGNMENT((#53,#58));
#53=SURFACE_STYLE_USAGE(.BOTH.,#54);
#54=SURFACE_SIDE_STYLE('',(#55));
#55=SURFACE_STYLE_FILL_AREA(#56);
#56=FILL_AREA_STYLE('',(#57));
#57=FILL_AREA_STYLE_COLOUR('',#59);
#58=CURVE_STYLE('',#60,POSITIVE_LENGTH_MEASURE(0.1),#59);
#59=COLOUR_RGB('Pin1Rad',0.588,0.588,0.588);
#60=DRAUGHTING_PRE_DEFINED_CURVE_FONT('continuous');
#61=PRESENTATION_STYLE_ASSIGNMENT((#62,#67));
#62=SURFACE_STYLE_USAGE(.BOTH.,#63);
#63=SURFACE_SIDE_STYLE('',(#64));
#64=SURFACE_STYLE_FILL_AREA(#65);
#65=FILL_AREA_STYLE('',(#66));
#66=FILL_AREA_STYLE_COLOUR('',#68);
#67=CURVE_STYLE('',#69,POSITIVE_LENGTH_MEASURE(0.1),#68);
#68=COLOUR_RGB('HeatTab',0.588,0.588,0.588);
#69=DRAUGHTING_PRE_DEFINED_CURVE_FONT('continuous');
#70=PRESENTATION_STYLE_ASSIGNMENT((#71,#76));
#71=SURFACE_STYLE_USAGE(.BOTH.,#72);
#72=SURFACE_SIDE_STYLE('',(#73));
#73=SURFACE_STYLE_FILL_AREA(#74);
#74=FILL_AREA_STYLE('',(#75));
#75=FILL_AREA_STYLE_COLOUR('',#77);
#76=CURVE_STYLE('',#78,POSITIVE_LENGTH_MEASURE(0.1),#77);
#77=COLOUR_RGB('Black',0.196,0.196,0.196);
#78=DRAUGHTING_PRE_DEFINED_CURVE_FONT('continuous');
#79=PRESENTATION_STYLE_ASSIGNMENT((#80,#85));
#80=SURFACE_STYLE_USAGE(.BOTH.,#81);
#81=SURFACE_SIDE_STYLE('',(#82));
#82=SURFACE_STYLE_FILL_AREA(#83);
#83=FILL_AREA_STYLE('',(#84));
#84=FILL_AREA_STYLE_COLOUR('',#86);
#85=CURVE_STYLE('',#87,POSITIVE_LENGTH_MEASURE(0.1),#86);
#86=COLOUR_RGB('Gold',0.843,0.686,0.0);
#87=DRAUGHTING_PRE_DEFINED_CURVE_FONT('continuous');
#88=PRESENTATION_STYLE_ASSIGNMENT((#89,#94));
#89=SURFACE_STYLE_USAGE(.BOTH.,#90);
#90=SURFACE_SIDE_STYLE('',(#91));
#91=SURFACE_STYLE_FILL_AREA(#92);
#92=FILL_AREA_STYLE('',(#93));
#93=FILL_AREA_STYLE_COLOUR('',#95);
#94=CURVE_STYLE('',#96,POSITIVE_LENGTH_MEASURE(0.1),#95);
#95=COLOUR_RGB('Brown',0.459,0.345,0.176);
#96=DRAUGHTING_PRE_DEFINED_CURVE_FONT('continuous');
#97=PRESENTATION_STYLE_ASSIGNMENT((#98,#103));
#98=SURFACE_STYLE_USAGE(.BOTH.,#99);
#99=SURFACE_SIDE_STYLE('',(#100));
#100=SURFACE_STYLE_FILL_AREA(#101);
#101=FILL_AREA_STYLE('',(#102));
#102=FILL_AREA_STYLE_COLOUR('',#104);
#103=CURVE_STYLE('',#105,POSITIVE_LENGTH_MEASURE(0.1),#104);
#104=COLOUR_RGB('Tan',0.784,0.686,0.51);
#105=DRAUGHTING_PRE_DEFINED_CURVE_FONT('continuous');
#106=PRESENTATION_STYLE_ASSIGNMENT((#107,#112));
#107=SURFACE_STYLE_USAGE(.BOTH.,#108);
#108=SURFACE_SIDE_STYLE('',(#109));
#109=SURFACE_STYLE_FILL_AREA(#110);
#110=FILL_AREA_STYLE('',(#111));
#111=FILL_AREA_STYLE_COLOUR('',#113);
#112=CURVE_STYLE('',#114,POSITIVE_LENGTH_MEASURE(0.1),#113);
#113=COLOUR_RGB('Gray',0.431,0.431,0.431);
#114=DRAUGHTING_PRE_DEFINED_CURVE_FONT('continuous');
#115=PRESENTATION_STYLE_ASSIGNMENT((#116,#121));
#116=SURFACE_STYLE_USAGE(.BOTH.,#117);
#117=SURFACE_SIDE_STYLE('',(#118));
#118=SURFACE_STYLE_FILL_AREA(#119);
#119=FILL_AREA_STYLE('',(#120));
#120=FILL_AREA_STYLE_COLOUR('',#122);
#121=CURVE_STYLE('',#123,POSITIVE_LENGTH_MEASURE(0.1),#122);
#122=COLOUR_RGB('Red',0.6,0.0,0.0);
#123=DRAUGHTING_PRE_DEFINED_CURVE_FONT('continuous');
#124=PRESENTATION_STYLE_ASSIGNMENT((#125,#130));
#125=SURFACE_STYLE_USAGE(.BOTH.,#126);
#126=SURFACE_SIDE_STYLE('',(#127));
#127=SURFACE_STYLE_FILL_AREA(#128);
#128=FILL_AREA_STYLE('',(#129));
#129=FILL_AREA_STYLE_COLOUR('',#131);
#130=CURVE_STYLE('',#132,POSITIVE_LENGTH_MEASURE(0.1),#131);
#131=COLOUR_RGB('Blue',0.157,0.157,0.588);
#132=DRAUGHTING_PRE_DEFINED_CURVE_FONT('continuous');
#133=PRESENTATION_STYLE_ASSIGNMENT((#134,#139));
#134=SURFACE_STYLE_USAGE(.BOTH.,#135);
#135=SURFACE_SIDE_STYLE('',(#136));
#136=SURFACE_STYLE_FILL_AREA(#137);
#137=FILL_AREA_STYLE('',(#138));
#138=FILL_AREA_STYLE_COLOUR('',#140);
#139=CURVE_STYLE('',#141,POSITIVE_LENGTH_MEASURE(0.1),#140);
#140=COLOUR_RGB('Maroon',0.294,0.0,0.0);
#141=DRAUGHTING_PRE_DEFINED_CURVE_FONT('continuous');
#142=PRESENTATION_STYLE_ASSIGNMENT((#143,#148));
#143=SURFACE_STYLE_USAGE(.BOTH.,#144);
#144=SURFACE_SIDE_STYLE('',(#145));
#145=SURFACE_STYLE_FILL_AREA(#146);
#146=FILL_AREA_STYLE('',(#147));
#147=FILL_AREA_STYLE_COLOUR('',#149);
#148=CURVE_STYLE('',#150,POSITIVE_LENGTH_MEASURE(0.1),#149);
#149=COLOUR_RGB('Green',0.0,0.294,0.0);
#150=DRAUGHTING_PRE_DEFINED_CURVE_FONT('continuous');
#151=PRESENTATION_STYLE_ASSIGNMENT((#152,#157));
#152=SURFACE_STYLE_USAGE(.BOTH.,#153);
#153=SURFACE_SIDE_STYLE('',(#154));
#154=SURFACE_STYLE_FILL_AREA(#155);
#155=FILL_AREA_STYLE('',(#156));
#156=FILL_AREA_STYLE_COLOUR('',#158);
#157=CURVE_STYLE('',#159,POSITIVE_LENGTH_MEASURE(0.1),#158);
#158=COLOUR_RGB('Pin1',0.588,0.588,0.059);
#159=DRAUGHTING_PRE_DEFINED_CURVE_FONT('continuous');
#160=PRESENTATION_STYLE_ASSIGNMENT((#161,#166));
#161=SURFACE_STYLE_USAGE(.BOTH.,#162);
#162=SURFACE_SIDE_STYLE('',(#163));
#163=SURFACE_STYLE_FILL_AREA(#164);
#164=FILL_AREA_STYLE('',(#165));
#165=FILL_AREA_STYLE_COLOUR('',#167);
#166=CURVE_STYLE('',#168,POSITIVE_LENGTH_MEASURE(0.1),#167);
#167=COLOUR_RGB('Pin1Wrap',0.98,0.706,0.176);
#168=DRAUGHTING_PRE_DEFINED_CURVE_FONT('continuous');
#169=PRESENTATION_STYLE_ASSIGNMENT((#170,#175));
#170=SURFACE_STYLE_USAGE(.BOTH.,#171);
#171=SURFACE_SIDE_STYLE('',(#172));
#172=SURFACE_STYLE_FILL_AREA(#173);
#173=FILL_AREA_STYLE('',(#174));
#174=FILL_AREA_STYLE_COLOUR('',#176);
#175=CURVE_STYLE('',#177,POSITIVE_LENGTH_MEASURE(0.1),#176);
#176=COLOUR_RGB('Pin1Axial',0.98,0.706,0.176);
#177=DRAUGHTING_PRE_DEFINED_CURVE_FONT('continuous');
#178=PRESENTATION_STYLE_ASSIGNMENT((#179,#184));
#179=SURFACE_STYLE_USAGE(.BOTH.,#180);
#180=SURFACE_SIDE_STYLE('',(#181));
#181=SURFACE_STYLE_FILL_AREA(#182);
#182=FILL_AREA_STYLE('',(#183));
#183=FILL_AREA_STYLE_COLOUR('',#185);
#184=CURVE_STYLE('',#186,POSITIVE_LENGTH_MEASURE(0.1),#185);
#185=COLOUR_RGB('Pin1Tant',0.459,0.345,0.176);
#186=DRAUGHTING_PRE_DEFINED_CURVE_FONT('continuous');
#187=PRESENTATION_STYLE_ASSIGNMENT((#188,#193));
#188=SURFACE_STYLE_USAGE(.BOTH.,#189);
#189=SURFACE_SIDE_STYLE('',(#190));
#190=SURFACE_STYLE_FILL_AREA(#191);
#191=FILL_AREA_STYLE('',(#192));
#192=FILL_AREA_STYLE_COLOUR('',#194);
#193=CURVE_STYLE('',#195,POSITIVE_LENGTH_MEASURE(0.1),#194);
#194=COLOUR_RGB('Shroud',0.235,0.235,0.235);
#195=DRAUGHTING_PRE_DEFINED_CURVE_FONT('continuous');
#197=MANIFOLD_SOLID_BREP($,#198);
#198=CLOSED_SHELL('',(#199,#200,#201));
#199=ADVANCED_FACE($,(#205,#204),#222,.T.);
#200=ADVANCED_FACE($,(#206),#202,.F.);
#201=ADVANCED_FACE($,(#207),#203,.T.);
#202=PLANE($,#227);
#203=PLANE($,#228);
#204=FACE_BOUND($,#209,.T.);
#205=FACE_OUTER_BOUND($,#208,.T.);
#206=FACE_OUTER_BOUND($,#210,.T.);
#207=FACE_OUTER_BOUND($,#211,.T.);
#208=EDGE_LOOP($,(#218));
#209=EDGE_LOOP($,(#219));
#210=EDGE_LOOP($,(#220));
#211=EDGE_LOOP($,(#221));
#212=CIRCLE($,#225,1.9939);
#213=CIRCLE($,#226,1.9939);
#214=VERTEX_POINT('',#243);
#215=VERTEX_POINT('',#245);
#216=EDGE_CURVE($,#214,#214,#212,.T.);
#217=EDGE_CURVE($,#215,#215,#213,.T.);
#218=ORIENTED_EDGE($,*,*,#216,.F.);
#219=ORIENTED_EDGE($,*,*,#217,.F.);
#220=ORIENTED_EDGE($,*,*,#217,.T.);
#221=ORIENTED_EDGE($,*,*,#216,.T.);
#222=CYLINDRICAL_SURFACE($,#224,1.9939);
#223=AXIS2_PLACEMENT_3D('placement',#241,#229,#230);
#224=AXIS2_PLACEMENT_3D($,#242,#231,#232);
#225=AXIS2_PLACEMENT_3D($,#244,#233,#234);
#226=AXIS2_PLACEMENT_3D($,#246,#235,#236);
#227=AXIS2_PLACEMENT_3D($,#247,#237,#238);
#228=AXIS2_PLACEMENT_3D($,#248,#239,#240);
#229=DIRECTION('axis',(0.,1.,0.));
#230=DIRECTION('refdir',(1.,0.,0.));
#231=DIRECTION('',(0.,0.,1.));
#232=DIRECTION('',(1.,0.,0.));
#233=DIRECTION('',(0.,0.,1.));
#234=DIRECTION('',(1.,0.,0.));
#235=DIRECTION('',(0.,0.,-1.));
#236=DIRECTION('',(1.,0.,0.));
#237=DIRECTION('',(0.,0.,1.));
#238=DIRECTION('',(0.,1.,0.));
#239=DIRECTION('',(0.,0.,1.));
#240=DIRECTION('',(0.,1.,0.));
#241=CARTESIAN_POINT('',(0.,0.,0.));
#242=CARTESIAN_POINT('',(1.27,0.0,0.0));
#243=CARTESIAN_POINT('',(-0.724,0.0,5.232));
#244=CARTESIAN_POINT('',(1.27,0.0,5.232));
#245=CARTESIAN_POINT('',(-0.724,0.0,0.0));
#246=CARTESIAN_POINT('',(1.27,0.0,0.0));
#247=CARTESIAN_POINT('',(1.27,0.0,0.0));
#248=CARTESIAN_POINT('',(1.27,0.0,5.232));
#249=STYLED_ITEM('color',(#43),#199);
#250=STYLED_ITEM('color',(#43),#200);
#251=STYLED_ITEM('color',(#43),#201);
#253=MANIFOLD_SOLID_BREP($,#254);
#254=CLOSED_SHELL('',(#256,#287,#318,#371,#424,#477,#530,#583,#636,#689,#742,#795));
#255=STYLED_ITEM('color',(#34),#256);
#256=ADVANCED_FACE($,(#262),#257,.T.);
#257=PLANE($,#258);
#258=AXIS2_PLACEMENT_3D($,#259,#260,#261);
#259=CARTESIAN_POINT('',(2.502,0.0,0.0));
#260=DIRECTION('',(0.,0.,1.));
#261=DIRECTION('',(0.,1.,0.));
#262=FACE_OUTER_BOUND($,#263,.T.);
#263=EDGE_LOOP($,(#264, #275));
#267=CARTESIAN_POINT('',(2.248,0.0,0.0));
#266=VERTEX_POINT('',#267);
#269=CARTESIAN_POINT('',(2.756,0.0,0.0));
#268=VERTEX_POINT('',#269);
#265=EDGE_CURVE($,#266,#268,#270,.T.);
#270=CIRCLE($,#271,0.254);
#272=CARTESIAN_POINT('',(2.502,0.0,0.0));
#271=AXIS2_PLACEMENT_3D($,#272,#273,#274);
#273=DIRECTION('',(0.0,0.0,-1.0));
#274=DIRECTION('',(1.0,0.0,0.0));
#264=ORIENTED_EDGE('',*,*,#265,.F.);
#276=EDGE_CURVE($,#268,#266,#281,.T.);
#281=CIRCLE($,#282,0.254);
#282=AXIS2_PLACEMENT_3D($,#272,#284,#285);
#284=DIRECTION('',(0.0,0.0,-1.0));
#285=DIRECTION('',(-1.0,0.0,0.0));
#275=ORIENTED_EDGE('',*,*,#276,.F.);
#286=STYLED_ITEM('color',(#34),#287);
#287=ADVANCED_FACE($,(#293),#288,.T.);
#288=PLANE($,#289);
#289=AXIS2_PLACEMENT_3D($,#290,#291,#292);
#290=CARTESIAN_POINT('',(2.54,0.0,-4.064));
#291=DIRECTION('',(0.,0.,-1.));
#292=DIRECTION('',(0.,1.,0.));
#293=FACE_OUTER_BOUND($,#294,.T.);
#294=EDGE_LOOP($,(#295, #306));
#298=CARTESIAN_POINT('',(2.286,0.0,-4.064));
#297=VERTEX_POINT('',#298);
#300=CARTESIAN_POINT('',(2.794,0.0,-4.064));
#299=VERTEX_POINT('',#300);
#296=EDGE_CURVE($,#297,#299,#301,.T.);
#301=CIRCLE($,#302,0.254);
#303=CARTESIAN_POINT('',(2.54,0.0,-4.064));
#302=AXIS2_PLACEMENT_3D($,#303,#304,#305);
#304=DIRECTION('',(0.0,0.0,1.0));
#305=DIRECTION('',(1.0,0.0,0.0));
#295=ORIENTED_EDGE('',*,*,#296,.F.);
#307=EDGE_CURVE($,#299,#297,#312,.T.);
#312=CIRCLE($,#313,0.254);
#313=AXIS2_PLACEMENT_3D($,#303,#315,#316);
#315=DIRECTION('',(0.0,0.0,1.0));
#316=DIRECTION('',(-1.0,0.0,0.0));
#306=ORIENTED_EDGE('',*,*,#307,.F.);
#317=STYLED_ITEM('color',(#34),#318);
#318=ADVANCED_FACE($,(#324),#319,.T.);
#319=CYLINDRICAL_SURFACE($,#320,0.254);
#320=AXIS2_PLACEMENT_3D($,#321,#322,#323);
#321=CARTESIAN_POINT('',(2.502,0.0,-0.152));
#322=DIRECTION('',(0.,0.,1.));
#323=DIRECTION('',(0.0,1.0,0.0));
#324=FACE_OUTER_BOUND($,#325,.T.);
#325=EDGE_LOOP($,(#348, #326, #358, #337));
#351=CARTESIAN_POINT('',(2.248,0.0,-0.152));
#350=VERTEX_POINT('',#351);
#349=EDGE_CURVE('',#350,#266,#354,.T.);
#354=LINE('',#351,#356);
#356=VECTOR('',#357,0.1524);
#357=DIRECTION('',(0.0,0.0,1.0));
#348=ORIENTED_EDGE('',*,*,#349,.F.);
#329=CARTESIAN_POINT('',(2.756,0.0,-0.152));
#328=VERTEX_POINT('',#329);
#327=EDGE_CURVE($,#328,#350,#332,.T.);
#332=CIRCLE($,#333,0.254);
#334=CARTESIAN_POINT('',(2.502,0.0,-0.152));
#333=AXIS2_PLACEMENT_3D($,#334,#335,#336);
#335=DIRECTION('',(0.0,0.0,-1.0));
#336=DIRECTION('',(-1.0,0.0,0.0));
#326=ORIENTED_EDGE('',*,*,#327,.F.);
#359=EDGE_CURVE('',#268,#328,#364,.T.);
#364=LINE('',#269,#366);
#366=VECTOR('',#367,0.1524);
#367=DIRECTION('',(0.0,0.0,-1.0));
#358=ORIENTED_EDGE('',*,*,#359,.F.);
#337=ORIENTED_EDGE('',*,*,#276,.T.);
#370=STYLED_ITEM('color',(#34),#371);
#371=ADVANCED_FACE($,(#377),#372,.T.);
#372=CYLINDRICAL_SURFACE($,#373,0.254);
#373=AXIS2_PLACEMENT_3D($,#374,#375,#376);
#374=CARTESIAN_POINT('',(2.502,0.0,-0.152));
#375=DIRECTION('',(0.,0.,1.));
#376=DIRECTION('',(0.0,1.0,0.0));
#377=FACE_OUTER_BOUND($,#378,.T.);
#378=EDGE_LOOP($,(#401, #379, #411, #390));
#401=ORIENTED_EDGE('',*,*,#359,.T.);
#380=EDGE_CURVE($,#350,#328,#385,.T.);
#385=CIRCLE($,#386,0.254);
#386=AXIS2_PLACEMENT_3D($,#334,#388,#389);
#388=DIRECTION('',(0.0,0.0,-1.0));
#389=DIRECTION('',(1.0,0.0,0.0));
#379=ORIENTED_EDGE('',*,*,#380,.F.);
#411=ORIENTED_EDGE('',*,*,#349,.T.);
#390=ORIENTED_EDGE('',*,*,#265,.T.);
#423=STYLED_ITEM('color',(#34),#424);
#424=ADVANCED_FACE($,(#430),#425,.T.);
#425=CYLINDRICAL_SURFACE($,#426,0.254);
#426=AXIS2_PLACEMENT_3D($,#427,#428,#429);
#427=CARTESIAN_POINT('',(2.54,0.0,-4.064));
#428=DIRECTION('',(0.,0.,1.));
#429=DIRECTION('',(0.0,1.0,0.0));
#430=FACE_OUTER_BOUND($,#431,.T.);
#431=EDGE_LOOP($,(#454, #432, #464, #443));
#459=CARTESIAN_POINT('',(2.286,0.0,-1.524));
#458=VERTEX_POINT('',#459);
#455=EDGE_CURVE('',#297,#458,#460,.T.);
#460=LINE('',#298,#462);
#462=VECTOR('',#463,2.54);
#463=DIRECTION('',(0.0,0.0,1.0));
#454=ORIENTED_EDGE('',*,*,#455,.F.);
#432=ORIENTED_EDGE('',*,*,#296,.T.);
#467=CARTESIAN_POINT('',(2.794,0.0,-1.524));
#466=VERTEX_POINT('',#467);
#465=EDGE_CURVE('',#466,#299,#470,.T.);
#470=LINE('',#467,#472);
#472=VECTOR('',#473,2.54);
#473=DIRECTION('',(0.0,0.0,-1.0));
#464=ORIENTED_EDGE('',*,*,#465,.F.);
#444=EDGE_CURVE($,#458,#466,#449,.T.);
#449=CIRCLE($,#450,0.254);
#451=CARTESIAN_POINT('',(2.54,0.0,-1.524));
#450=AXIS2_PLACEMENT_3D($,#451,#452,#453);
#452=DIRECTION('',(0.0,0.0,1.0));
#453=DIRECTION('',(1.0,0.0,0.0));
#443=ORIENTED_EDGE('',*,*,#444,.F.);
#476=STYLED_ITEM('color',(#34),#477);
#477=ADVANCED_FACE($,(#483),#478,.T.);
#478=CYLINDRICAL_SURFACE($,#479,0.254);
#479=AXIS2_PLACEMENT_3D($,#480,#481,#482);
#480=CARTESIAN_POINT('',(2.54,0.0,-4.064));
#481=DIRECTION('',(0.,0.,1.));
#482=DIRECTION('',(0.0,1.0,0.0));
#483=FACE_OUTER_BOUND($,#484,.T.);
#484=EDGE_LOOP($,(#507, #485, #517, #496));
#507=ORIENTED_EDGE('',*,*,#465,.T.);
#485=ORIENTED_EDGE('',*,*,#307,.T.);
#517=ORIENTED_EDGE('',*,*,#455,.T.);
#497=EDGE_CURVE($,#466,#458,#502,.T.);
#502=CIRCLE($,#503,0.254);
#503=AXIS2_PLACEMENT_3D($,#451,#505,#506);
#505=DIRECTION('',(0.0,0.0,1.0));
#506=DIRECTION('',(-1.0,0.0,0.0));
#496=ORIENTED_EDGE('',*,*,#497,.F.);
#529=STYLED_ITEM('color',(#34),#530);
#530=ADVANCED_FACE($,(#536),#531,.T.);
#531=CYLINDRICAL_SURFACE($,#532,0.254);
#532=AXIS2_PLACEMENT_3D($,#533,#534,#535);
#533=CARTESIAN_POINT('',(2.54,0.0,-1.51));
#534=DIRECTION('',(-0.028,0.0,1.0));
#535=DIRECTION('',(0.0,1.0,0.0));
#536=FACE_OUTER_BOUND($,#537,.T.);
#537=EDGE_LOOP($,(#560, #538, #570, #549));
#563=CARTESIAN_POINT('',(2.286,0.0,-1.517));
#562=VERTEX_POINT('',#563);
#565=CARTESIAN_POINT('',(2.248,0.0,-0.174));
#564=VERTEX_POINT('',#565);
#561=EDGE_CURVE('',#562,#564,#566,.T.);
#566=LINE('',#563,#568);
#568=VECTOR('',#569,1.34369596553193);
#569=DIRECTION('',(-0.028,0.0,1.0));
#560=ORIENTED_EDGE('',*,*,#561,.F.);
#541=CARTESIAN_POINT('',(2.794,0.0,-1.503));
#540=VERTEX_POINT('',#541);
#539=EDGE_CURVE($,#540,#562,#544,.T.);
#544=CIRCLE($,#545,0.254);
#546=CARTESIAN_POINT('',(2.54,0.0,-1.51));
#545=AXIS2_PLACEMENT_3D($,#546,#547,#548);
#547=DIRECTION('',(0.028,0.0,-1.0));
#548=DIRECTION('',(-1.0,0.0,-0.028));
#538=ORIENTED_EDGE('',*,*,#539,.F.);
#573=CARTESIAN_POINT('',(2.756,0.0,-0.16));
#572=VERTEX_POINT('',#573);
#571=EDGE_CURVE('',#572,#540,#576,.T.);
#576=LINE('',#573,#578);
#578=VECTOR('',#579,1.34369596553193);
#579=DIRECTION('',(0.028,0.0,-1.0));
#570=ORIENTED_EDGE('',*,*,#571,.F.);
#550=EDGE_CURVE($,#564,#572,#555,.T.);
#555=CIRCLE($,#556,0.254);
#557=CARTESIAN_POINT('',(2.502,0.0,-0.167));
#556=AXIS2_PLACEMENT_3D($,#557,#558,#559);
#558=DIRECTION('',(-0.028,0.0,1.0));
#559=DIRECTION('',(1.0,0.0,0.028));
#549=ORIENTED_EDGE('',*,*,#550,.F.);
#582=STYLED_ITEM('color',(#34),#583);
#583=ADVANCED_FACE($,(#589),#584,.T.);
#584=CYLINDRICAL_SURFACE($,#585,0.254);
#585=AXIS2_PLACEMENT_3D($,#586,#587,#588);
#586=CARTESIAN_POINT('',(2.54,0.0,-1.51));
#587=DIRECTION('',(-0.028,0.0,1.0));
#588=DIRECTION('',(0.0,1.0,0.0));
#589=FACE_OUTER_BOUND($,#590,.T.);
#590=EDGE_LOOP($,(#613, #591, #623, #602));
#613=ORIENTED_EDGE('',*,*,#571,.T.);
#592=EDGE_CURVE($,#562,#540,#597,.T.);
#597=CIRCLE($,#598,0.254);
#598=AXIS2_PLACEMENT_3D($,#546,#600,#601);
#600=DIRECTION('',(0.028,0.0,-1.0));
#601=DIRECTION('',(1.0,0.0,0.028));
#591=ORIENTED_EDGE('',*,*,#592,.F.);
#623=ORIENTED_EDGE('',*,*,#561,.T.);
#603=EDGE_CURVE($,#572,#564,#608,.T.);
#608=CIRCLE($,#609,0.254);
#609=AXIS2_PLACEMENT_3D($,#557,#611,#612);
#611=DIRECTION('',(-0.028,0.0,1.0));
#612=DIRECTION('',(1.0,0.0,0.028));
#602=ORIENTED_EDGE('',*,*,#603,.F.);
#635=STYLED_ITEM('color',(#34),#636);
#636 = ADVANCED_FACE ( '', ( #642 ), #637, .T. ) ;
#637 = TOROIDAL_SURFACE ( '', #638, 0.508, 0.254 ) ;
#638 = AXIS2_PLACEMENT_3D ( '', #639, #640, #641 ) ;
#639 = CARTESIAN_POINT ( '',  ( 3.01,0.0,-0.152 ) ) ;
#640 = DIRECTION ( '',  ( 0.0,-1.0,0.0 ) ) ;
#641 = DIRECTION ( '',  ( 0.0000000000000000000, 0.0000000000000000000, -1.000000000000000000 ) ) ;
#642 = FACE_OUTER_BOUND ( '', #643, .T. ) ;
#643 = EDGE_LOOP ( '', ( #644, #655, #666, #677 ) ) ;
#644=ORIENTED_EDGE('',*,*,#327,.T.);
#656=EDGE_CURVE($,#564,#350,#661,.T.);
#661=CIRCLE($,#662,0.762);
#663=CARTESIAN_POINT('',(3.01,0.0,-0.152));
#662=AXIS2_PLACEMENT_3D($,#663,#664,#665);
#664=DIRECTION('',(0.0,1.0,0.0));
#665=DIRECTION('',(0.0,0.0,1.0));
#655=ORIENTED_EDGE('',*,*,#656,.F.);
#666=ORIENTED_EDGE('',*,*,#550,.T.);
#678=EDGE_CURVE($,#328,#572,#683,.T.);
#683=CIRCLE($,#684,0.254);
#684=AXIS2_PLACEMENT_3D($,#663,#686,#687);
#686=DIRECTION('',(0.0,-1.0,0.0));
#687=DIRECTION('',(0.0,0.0,1.0));
#677=ORIENTED_EDGE('',*,*,#678,.F.);
#688=STYLED_ITEM('color',(#34),#689);
#689 = ADVANCED_FACE ( '', ( #695 ), #690, .T. ) ;
#690 = TOROIDAL_SURFACE ( '', #691, 0.508, 0.254 ) ;
#691 = AXIS2_PLACEMENT_3D ( '', #692, #693, #694 ) ;
#692 = CARTESIAN_POINT ( '',  ( 3.01,0.0,-0.152 ) ) ;
#693 = DIRECTION ( '',  ( 0.0,1.0,0.0 ) ) ;
#694 = DIRECTION ( '',  ( 0.0000000000000000000, 0.0000000000000000000, 1.000000000000000000 ) ) ;
#695 = FACE_OUTER_BOUND ( '', #696, .T. ) ;
#696 = EDGE_LOOP ( '', ( #697, #708, #719, #730 ) ) ;
#697=ORIENTED_EDGE('',*,*,#380,.T.);
#708=ORIENTED_EDGE('',*,*,#678,.T.);
#719=ORIENTED_EDGE('',*,*,#603,.T.);
#730=ORIENTED_EDGE('',*,*,#656,.T.);
#741=STYLED_ITEM('color',(#34),#742);
#742 = ADVANCED_FACE ( '', ( #748 ), #743, .T. ) ;
#743 = TOROIDAL_SURFACE ( '', #744, 0.508, 0.254 ) ;
#744 = AXIS2_PLACEMENT_3D ( '', #745, #746, #747 ) ;
#745 = CARTESIAN_POINT ( '',  ( 2.032,0.0,-1.524 ) ) ;
#746 = DIRECTION ( '',  ( 0.0,1.0,0.0 ) ) ;
#747 = DIRECTION ( '',  ( 0.0000000000000000000, 0.0000000000000000000, 1.000000000000000000 ) ) ;
#748 = FACE_OUTER_BOUND ( '', #749, .T. ) ;
#749 = EDGE_LOOP ( '', ( #750, #761, #772, #783 ) ) ;
#750=ORIENTED_EDGE('',*,*,#592,.T.);
#762=EDGE_CURVE($,#466,#540,#767,.T.);
#767=CIRCLE($,#768,0.762);
#769=CARTESIAN_POINT('',(2.032,0.0,-1.524));
#768=AXIS2_PLACEMENT_3D($,#769,#770,#771);
#770=DIRECTION('',(0.0,-1.0,0.0));
#771=DIRECTION('',(0.0,0.0,1.0));
#761=ORIENTED_EDGE('',*,*,#762,.F.);
#772=ORIENTED_EDGE('',*,*,#497,.T.);
#784=EDGE_CURVE($,#562,#458,#789,.T.);
#789=CIRCLE($,#790,0.254);
#790=AXIS2_PLACEMENT_3D($,#769,#792,#793);
#792=DIRECTION('',(0.0,1.0,0.0));
#793=DIRECTION('',(0.0,0.0,1.0));
#783=ORIENTED_EDGE('',*,*,#784,.F.);
#794=STYLED_ITEM('color',(#34),#795);
#795 = ADVANCED_FACE ( '', ( #801 ), #796, .T. ) ;
#796 = TOROIDAL_SURFACE ( '', #797, 0.508, 0.254 ) ;
#797 = AXIS2_PLACEMENT_3D ( '', #798, #799, #800 ) ;
#798 = CARTESIAN_POINT ( '',  ( 2.032,0.0,-1.524 ) ) ;
#799 = DIRECTION ( '',  ( 0.0,-1.0,0.0 ) ) ;
#800 = DIRECTION ( '',  ( 0.0000000000000000000, 0.0000000000000000000, 1.000000000000000000 ) ) ;
#801 = FACE_OUTER_BOUND ( '', #802, .T. ) ;
#802 = EDGE_LOOP ( '', ( #803, #814, #825, #836 ) ) ;
#803=ORIENTED_EDGE('',*,*,#539,.T.);
#814=ORIENTED_EDGE('',*,*,#784,.T.);
#825=ORIENTED_EDGE('',*,*,#444,.T.);
#836=ORIENTED_EDGE('',*,*,#762,.T.);
#847=MANIFOLD_SOLID_BREP($,#848);
#848=CLOSED_SHELL('',(#850,#881,#912,#965,#1018,#1071,#1124,#1177,#1230,#1283,#1336,#1389));
#849=STYLED_ITEM('color',(#34),#850);
#850=ADVANCED_FACE($,(#856),#851,.T.);
#851=PLANE($,#852);
#852=AXIS2_PLACEMENT_3D($,#853,#854,#855);
#853=CARTESIAN_POINT('',(0.038,0.0,0.0));
#854=DIRECTION('',(0.,0.,1.));
#855=DIRECTION('',(0.,1.,0.));
#856=FACE_OUTER_BOUND($,#857,.T.);
#857=EDGE_LOOP($,(#858, #869));
#861=CARTESIAN_POINT('',(0.292,0.0,0.0));
#860=VERTEX_POINT('',#861);
#863=CARTESIAN_POINT('',(-0.216,0.0,0.0));
#862=VERTEX_POINT('',#863);
#859=EDGE_CURVE($,#860,#862,#864,.T.);
#864=CIRCLE($,#865,0.254);
#866=CARTESIAN_POINT('',(0.038,0.0,0.0));
#865=AXIS2_PLACEMENT_3D($,#866,#867,#868);
#867=DIRECTION('',(0.0,0.0,-1.0));
#868=DIRECTION('',(-1.0,0.0,0.0));
#858=ORIENTED_EDGE('',*,*,#859,.F.);
#870=EDGE_CURVE($,#862,#860,#875,.T.);
#875=CIRCLE($,#876,0.254);
#876=AXIS2_PLACEMENT_3D($,#866,#878,#879);
#878=DIRECTION('',(0.0,0.0,-1.0));
#879=DIRECTION('',(1.0,0.0,0.0));
#869=ORIENTED_EDGE('',*,*,#870,.F.);
#880=STYLED_ITEM('color',(#34),#881);
#881=ADVANCED_FACE($,(#887),#882,.T.);
#882=PLANE($,#883);
#883=AXIS2_PLACEMENT_3D($,#884,#885,#886);
#884=CARTESIAN_POINT('',(0.0,0.0,-4.064));
#885=DIRECTION('',(0.,0.,-1.));
#886=DIRECTION('',(0.,1.,0.));
#887=FACE_OUTER_BOUND($,#888,.T.);
#888=EDGE_LOOP($,(#889, #900));
#892=CARTESIAN_POINT('',(0.254,0.0,-4.064));
#891=VERTEX_POINT('',#892);
#894=CARTESIAN_POINT('',(-0.254,0.0,-4.064));
#893=VERTEX_POINT('',#894);
#890=EDGE_CURVE($,#891,#893,#895,.T.);
#895=CIRCLE($,#896,0.254);
#897=CARTESIAN_POINT('',(0.0,0.0,-4.064));
#896=AXIS2_PLACEMENT_3D($,#897,#898,#899);
#898=DIRECTION('',(0.0,0.0,1.0));
#899=DIRECTION('',(-1.0,0.0,0.0));
#889=ORIENTED_EDGE('',*,*,#890,.F.);
#901=EDGE_CURVE($,#893,#891,#906,.T.);
#906=CIRCLE($,#907,0.254);
#907=AXIS2_PLACEMENT_3D($,#897,#909,#910);
#909=DIRECTION('',(0.0,0.0,1.0));
#910=DIRECTION('',(1.0,0.0,0.0));
#900=ORIENTED_EDGE('',*,*,#901,.F.);
#911=STYLED_ITEM('color',(#34),#912);
#912=ADVANCED_FACE($,(#918),#913,.T.);
#913=CYLINDRICAL_SURFACE($,#914,0.254);
#914=AXIS2_PLACEMENT_3D($,#915,#916,#917);
#915=CARTESIAN_POINT('',(0.038,0.0,-0.152));
#916=DIRECTION('',(0.,0.,1.));
#917=DIRECTION('',(0.0,-1.0,0.0));
#918=FACE_OUTER_BOUND($,#919,.T.);
#919=EDGE_LOOP($,(#942, #920, #952, #931));
#945=CARTESIAN_POINT('',(0.292,0.0,-0.152));
#944=VERTEX_POINT('',#945);
#943=EDGE_CURVE('',#944,#860,#948,.T.);
#948=LINE('',#945,#950);
#950=VECTOR('',#951,0.1524);
#951=DIRECTION('',(0.0,0.0,1.0));
#942=ORIENTED_EDGE('',*,*,#943,.F.);
#923=CARTESIAN_POINT('',(-0.216,0.0,-0.152));
#922=VERTEX_POINT('',#923);
#921=EDGE_CURVE($,#922,#944,#926,.T.);
#926=CIRCLE($,#927,0.254);
#928=CARTESIAN_POINT('',(0.038,0.0,-0.152));
#927=AXIS2_PLACEMENT_3D($,#928,#929,#930);
#929=DIRECTION('',(0.0,0.0,-1.0));
#930=DIRECTION('',(1.0,0.0,0.0));
#920=ORIENTED_EDGE('',*,*,#921,.F.);
#953=EDGE_CURVE('',#862,#922,#958,.T.);
#958=LINE('',#863,#960);
#960=VECTOR('',#961,0.1524);
#961=DIRECTION('',(0.0,0.0,-1.0));
#952=ORIENTED_EDGE('',*,*,#953,.F.);
#931=ORIENTED_EDGE('',*,*,#870,.T.);
#964=STYLED_ITEM('color',(#34),#965);
#965=ADVANCED_FACE($,(#971),#966,.T.);
#966=CYLINDRICAL_SURFACE($,#967,0.254);
#967=AXIS2_PLACEMENT_3D($,#968,#969,#970);
#968=CARTESIAN_POINT('',(0.038,0.0,-0.152));
#969=DIRECTION('',(0.,0.,1.));
#970=DIRECTION('',(0.0,-1.0,0.0));
#971=FACE_OUTER_BOUND($,#972,.T.);
#972=EDGE_LOOP($,(#995, #973, #1005, #984));
#995=ORIENTED_EDGE('',*,*,#953,.T.);
#974=EDGE_CURVE($,#944,#922,#979,.T.);
#979=CIRCLE($,#980,0.254);
#980=AXIS2_PLACEMENT_3D($,#928,#982,#983);
#982=DIRECTION('',(0.0,0.0,-1.0));
#983=DIRECTION('',(-1.0,0.0,0.0));
#973=ORIENTED_EDGE('',*,*,#974,.F.);
#1005=ORIENTED_EDGE('',*,*,#943,.T.);
#984=ORIENTED_EDGE('',*,*,#859,.T.);
#1017=STYLED_ITEM('color',(#34),#1018);
#1018=ADVANCED_FACE($,(#1024),#1019,.T.);
#1019=CYLINDRICAL_SURFACE($,#1020,0.254);
#1020=AXIS2_PLACEMENT_3D($,#1021,#1022,#1023);
#1021=CARTESIAN_POINT('',(0.0,0.0,-4.064));
#1022=DIRECTION('',(0.,0.,1.));
#1023=DIRECTION('',(0.0,-1.0,0.0));
#1024=FACE_OUTER_BOUND($,#1025,.T.);
#1025=EDGE_LOOP($,(#1048, #1026, #1058, #1037));
#1053=CARTESIAN_POINT('',(0.254,0.0,-1.524));
#1052=VERTEX_POINT('',#1053);
#1049=EDGE_CURVE('',#891,#1052,#1054,.T.);
#1054=LINE('',#892,#1056);
#1056=VECTOR('',#1057,2.54);
#1057=DIRECTION('',(0.0,0.0,1.0));
#1048=ORIENTED_EDGE('',*,*,#1049,.F.);
#1026=ORIENTED_EDGE('',*,*,#890,.T.);
#1061=CARTESIAN_POINT('',(-0.254,0.0,-1.524));
#1060=VERTEX_POINT('',#1061);
#1059=EDGE_CURVE('',#1060,#893,#1064,.T.);
#1064=LINE('',#1061,#1066);
#1066=VECTOR('',#1067,2.54);
#1067=DIRECTION('',(0.0,0.0,-1.0));
#1058=ORIENTED_EDGE('',*,*,#1059,.F.);
#1038=EDGE_CURVE($,#1052,#1060,#1043,.T.);
#1043=CIRCLE($,#1044,0.254);
#1045=CARTESIAN_POINT('',(0.0,0.0,-1.524));
#1044=AXIS2_PLACEMENT_3D($,#1045,#1046,#1047);
#1046=DIRECTION('',(0.0,0.0,1.0));
#1047=DIRECTION('',(-1.0,0.0,0.0));
#1037=ORIENTED_EDGE('',*,*,#1038,.F.);
#1070=STYLED_ITEM('color',(#34),#1071);
#1071=ADVANCED_FACE($,(#1077),#1072,.T.);
#1072=CYLINDRICAL_SURFACE($,#1073,0.254);
#1073=AXIS2_PLACEMENT_3D($,#1074,#1075,#1076);
#1074=CARTESIAN_POINT('',(0.0,0.0,-4.064));
#1075=DIRECTION('',(0.,0.,1.));
#1076=DIRECTION('',(0.0,-1.0,0.0));
#1077=FACE_OUTER_BOUND($,#1078,.T.);
#1078=EDGE_LOOP($,(#1101, #1079, #1111, #1090));
#1101=ORIENTED_EDGE('',*,*,#1059,.T.);
#1079=ORIENTED_EDGE('',*,*,#901,.T.);
#1111=ORIENTED_EDGE('',*,*,#1049,.T.);
#1091=EDGE_CURVE($,#1060,#1052,#1096,.T.);
#1096=CIRCLE($,#1097,0.254);
#1097=AXIS2_PLACEMENT_3D($,#1045,#1099,#1100);
#1099=DIRECTION('',(0.0,0.0,1.0));
#1100=DIRECTION('',(1.0,0.0,0.0));
#1090=ORIENTED_EDGE('',*,*,#1091,.F.);
#1123=STYLED_ITEM('color',(#34),#1124);
#1124=ADVANCED_FACE($,(#1130),#1125,.T.);
#1125=CYLINDRICAL_SURFACE($,#1126,0.254);
#1126=AXIS2_PLACEMENT_3D($,#1127,#1128,#1129);
#1127=CARTESIAN_POINT('',(0.0,0.0,-1.51));
#1128=DIRECTION('',(0.028,0.0,1.0));
#1129=DIRECTION('',(0.0,-1.0,0.0));
#1130=FACE_OUTER_BOUND($,#1131,.T.);
#1131=EDGE_LOOP($,(#1154, #1132, #1164, #1143));
#1157=CARTESIAN_POINT('',(0.254,0.0,-1.517));
#1156=VERTEX_POINT('',#1157);
#1159=CARTESIAN_POINT('',(0.292,0.0,-0.174));
#1158=VERTEX_POINT('',#1159);
#1155=EDGE_CURVE('',#1156,#1158,#1160,.T.);
#1160=LINE('',#1157,#1162);
#1162=VECTOR('',#1163,1.34369596553193);
#1163=DIRECTION('',(0.028,0.0,1.0));
#1154=ORIENTED_EDGE('',*,*,#1155,.F.);
#1135=CARTESIAN_POINT('',(-0.254,0.0,-1.503));
#1134=VERTEX_POINT('',#1135);
#1133=EDGE_CURVE($,#1134,#1156,#1138,.T.);
#1138=CIRCLE($,#1139,0.254);
#1140=CARTESIAN_POINT('',(0.0,0.0,-1.51));
#1139=AXIS2_PLACEMENT_3D($,#1140,#1141,#1142);
#1141=DIRECTION('',(-0.028,0.0,-1.0));
#1142=DIRECTION('',(1.0,0.0,-0.028));
#1132=ORIENTED_EDGE('',*,*,#1133,.F.);
#1167=CARTESIAN_POINT('',(-0.216,0.0,-0.16));
#1166=VERTEX_POINT('',#1167);
#1165=EDGE_CURVE('',#1166,#1134,#1170,.T.);
#1170=LINE('',#1167,#1172);
#1172=VECTOR('',#1173,1.34369596553193);
#1173=DIRECTION('',(-0.028,0.0,-1.0));
#1164=ORIENTED_EDGE('',*,*,#1165,.F.);
#1144=EDGE_CURVE($,#1158,#1166,#1149,.T.);
#1149=CIRCLE($,#1150,0.254);
#1151=CARTESIAN_POINT('',(0.038,0.0,-0.167));
#1150=AXIS2_PLACEMENT_3D($,#1151,#1152,#1153);
#1152=DIRECTION('',(0.028,0.0,1.0));
#1153=DIRECTION('',(-1.0,0.0,0.028));
#1143=ORIENTED_EDGE('',*,*,#1144,.F.);
#1176=STYLED_ITEM('color',(#34),#1177);
#1177=ADVANCED_FACE($,(#1183),#1178,.T.);
#1178=CYLINDRICAL_SURFACE($,#1179,0.254);
#1179=AXIS2_PLACEMENT_3D($,#1180,#1181,#1182);
#1180=CARTESIAN_POINT('',(0.0,0.0,-1.51));
#1181=DIRECTION('',(0.028,0.0,1.0));
#1182=DIRECTION('',(0.0,-1.0,0.0));
#1183=FACE_OUTER_BOUND($,#1184,.T.);
#1184=EDGE_LOOP($,(#1207, #1185, #1217, #1196));
#1207=ORIENTED_EDGE('',*,*,#1165,.T.);
#1186=EDGE_CURVE($,#1156,#1134,#1191,.T.);
#1191=CIRCLE($,#1192,0.254);
#1192=AXIS2_PLACEMENT_3D($,#1140,#1194,#1195);
#1194=DIRECTION('',(-0.028,0.0,-1.0));
#1195=DIRECTION('',(-1.0,0.0,0.028));
#1185=ORIENTED_EDGE('',*,*,#1186,.F.);
#1217=ORIENTED_EDGE('',*,*,#1155,.T.);
#1197=EDGE_CURVE($,#1166,#1158,#1202,.T.);
#1202=CIRCLE($,#1203,0.254);
#1203=AXIS2_PLACEMENT_3D($,#1151,#1205,#1206);
#1205=DIRECTION('',(0.028,0.0,1.0));
#1206=DIRECTION('',(-1.0,0.0,0.028));
#1196=ORIENTED_EDGE('',*,*,#1197,.F.);
#1229=STYLED_ITEM('color',(#34),#1230);
#1230 = ADVANCED_FACE ( '', ( #1236 ), #1231, .T. ) ;
#1231 = TOROIDAL_SURFACE ( '', #1232, 0.508, 0.254 ) ;
#1232 = AXIS2_PLACEMENT_3D ( '', #1233, #1234, #1235 ) ;
#1233 = CARTESIAN_POINT ( '',  ( -0.47,0.0,-0.152 ) ) ;
#1234 = DIRECTION ( '',  ( 0.0,1.0,0.0 ) ) ;
#1235 = DIRECTION ( '',  ( 0.0000000000000000000, 0.0000000000000000000, -1.000000000000000000 ) ) ;
#1236 = FACE_OUTER_BOUND ( '', #1237, .T. ) ;
#1237 = EDGE_LOOP ( '', ( #1238, #1249, #1260, #1271 ) ) ;
#1238=ORIENTED_EDGE('',*,*,#921,.T.);
#1250=EDGE_CURVE($,#1158,#944,#1255,.T.);
#1255=CIRCLE($,#1256,0.762);
#1257=CARTESIAN_POINT('',(-0.47,0.0,-0.152));
#1256=AXIS2_PLACEMENT_3D($,#1257,#1258,#1259);
#1258=DIRECTION('',(0.0,-1.0,0.0));
#1259=DIRECTION('',(0.0,0.0,1.0));
#1249=ORIENTED_EDGE('',*,*,#1250,.F.);
#1260=ORIENTED_EDGE('',*,*,#1144,.T.);
#1272=EDGE_CURVE($,#922,#1166,#1277,.T.);
#1277=CIRCLE($,#1278,0.254);
#1278=AXIS2_PLACEMENT_3D($,#1257,#1280,#1281);
#1280=DIRECTION('',(0.0,1.0,0.0));
#1281=DIRECTION('',(0.0,0.0,1.0));
#1271=ORIENTED_EDGE('',*,*,#1272,.F.);
#1282=STYLED_ITEM('color',(#34),#1283);
#1283 = ADVANCED_FACE ( '', ( #1289 ), #1284, .T. ) ;
#1284 = TOROIDAL_SURFACE ( '', #1285, 0.508, 0.254 ) ;
#1285 = AXIS2_PLACEMENT_3D ( '', #1286, #1287, #1288 ) ;
#1286 = CARTESIAN_POINT ( '',  ( -0.47,0.0,-0.152 ) ) ;
#1287 = DIRECTION ( '',  ( 0.0,-1.0,0.0 ) ) ;
#1288 = DIRECTION ( '',  ( 0.0000000000000000000, 0.0000000000000000000, 1.000000000000000000 ) ) ;
#1289 = FACE_OUTER_BOUND ( '', #1290, .T. ) ;
#1290 = EDGE_LOOP ( '', ( #1291, #1302, #1313, #1324 ) ) ;
#1291=ORIENTED_EDGE('',*,*,#974,.T.);
#1302=ORIENTED_EDGE('',*,*,#1272,.T.);
#1313=ORIENTED_EDGE('',*,*,#1197,.T.);
#1324=ORIENTED_EDGE('',*,*,#1250,.T.);
#1335=STYLED_ITEM('color',(#34),#1336);
#1336 = ADVANCED_FACE ( '', ( #1342 ), #1337, .T. ) ;
#1337 = TOROIDAL_SURFACE ( '', #1338, 0.508, 0.254 ) ;
#1338 = AXIS2_PLACEMENT_3D ( '', #1339, #1340, #1341 ) ;
#1339 = CARTESIAN_POINT ( '',  ( 0.508,0.0,-1.524 ) ) ;
#1340 = DIRECTION ( '',  ( 0.0,-1.0,0.0 ) ) ;
#1341 = DIRECTION ( '',  ( 0.0000000000000000000, 0.0000000000000000000, 1.000000000000000000 ) ) ;
#1342 = FACE_OUTER_BOUND ( '', #1343, .T. ) ;
#1343 = EDGE_LOOP ( '', ( #1344, #1355, #1366, #1377 ) ) ;
#1344=ORIENTED_EDGE('',*,*,#1186,.T.);
#1356=EDGE_CURVE($,#1060,#1134,#1361,.T.);
#1361=CIRCLE($,#1362,0.762);
#1363=CARTESIAN_POINT('',(0.508,0.0,-1.524));
#1362=AXIS2_PLACEMENT_3D($,#1363,#1364,#1365);
#1364=DIRECTION('',(0.0,1.0,0.0));
#1365=DIRECTION('',(0.0,0.0,1.0));
#1355=ORIENTED_EDGE('',*,*,#1356,.F.);
#1366=ORIENTED_EDGE('',*,*,#1091,.T.);
#1378=EDGE_CURVE($,#1156,#1052,#1383,.T.);
#1383=CIRCLE($,#1384,0.254);
#1384=AXIS2_PLACEMENT_3D($,#1363,#1386,#1387);
#1386=DIRECTION('',(0.0,-1.0,0.0));
#1387=DIRECTION('',(0.0,0.0,1.0));
#1377=ORIENTED_EDGE('',*,*,#1378,.F.);
#1388=STYLED_ITEM('color',(#34),#1389);
#1389 = ADVANCED_FACE ( '', ( #1395 ), #1390, .T. ) ;
#1390 = TOROIDAL_SURFACE ( '', #1391, 0.508, 0.254 ) ;
#1391 = AXIS2_PLACEMENT_3D ( '', #1392, #1393, #1394 ) ;
#1392 = CARTESIAN_POINT ( '',  ( 0.508,0.0,-1.524 ) ) ;
#1393 = DIRECTION ( '',  ( 0.0,1.0,0.0 ) ) ;
#1394 = DIRECTION ( '',  ( 0.0000000000000000000, 0.0000000000000000000, 1.000000000000000000 ) ) ;
#1395 = FACE_OUTER_BOUND ( '', #1396, .T. ) ;
#1396 = EDGE_LOOP ( '', ( #1397, #1408, #1419, #1430 ) ) ;
#1397=ORIENTED_EDGE('',*,*,#1133,.T.);
#1408=ORIENTED_EDGE('',*,*,#1378,.T.);
#1419=ORIENTED_EDGE('',*,*,#1038,.T.);
#1430=ORIENTED_EDGE('',*,*,#1356,.T.);
#1442=MANIFOLD_SOLID_BREP($,#1443);
#1443=CLOSED_SHELL('',(#1445,#1514,#1583,#1632,#1685,#1738,#1791,#1843));
#1444=STYLED_ITEM('',(#52),#1445);
#1445=ADVANCED_FACE('',(#1451),#1446,.T.);
#1446=PLANE('',#1447);
#1447=AXIS2_PLACEMENT_3D('',#1448,#1449,#1450);
#1448=CARTESIAN_POINT('',(-0.701,-0.389,1.037));
#1449=DIRECTION('',(0.0,-1.0,0.0));
#1450=DIRECTION('',(0.,0.,1.));
#1451=FACE_OUTER_BOUND('',#1452,.T.);
#1452=EDGE_LOOP('',(#1453,#1463,#1473,#1483,#1493,#1503));
#1456=CARTESIAN_POINT('',(-0.676,-0.389,1.037));
#1455=VERTEX_POINT('',#1456);
#1458=CARTESIAN_POINT('',(-0.701,-0.389,1.037));
#1457=VERTEX_POINT('',#1458);
#1454=EDGE_CURVE('',#1455,#1457,#1459,.T.);
#1459=LINE('',#1456,#1461);
#1461=VECTOR('',#1462,0.0253999995691436);
#1462=DIRECTION('',(-1.0,0.0,0.0));
#1453=ORIENTED_EDGE('',*,*,#1454,.F.);
#1466=CARTESIAN_POINT('',(-0.676,-0.389,5.223));
#1465=VERTEX_POINT('',#1466);
#1464=EDGE_CURVE('',#1465,#1455,#1469,.T.);
#1469=LINE('',#1466,#1471);
#1471=VECTOR('',#1472,4.18592);
#1472=DIRECTION('',(0.0,0.0,-1.0));
#1463=ORIENTED_EDGE('',*,*,#1464,.F.);
#1476=CARTESIAN_POINT('',(0.881,-0.389,5.223));
#1475=VERTEX_POINT('',#1476);
#1474=EDGE_CURVE('',#1475,#1465,#1479,.T.);
#1479=LINE('',#1476,#1481);
#1481=VECTOR('',#1482,1.55680776241924);
#1482=DIRECTION('',(-1.0,0.0,0.0));
#1473=ORIENTED_EDGE('',*,*,#1474,.F.);
#1486=CARTESIAN_POINT('',(0.881,-0.389,5.248));
#1485=VERTEX_POINT('',#1486);
#1484=EDGE_CURVE('',#1485,#1475,#1489,.T.);
#1489=LINE('',#1486,#1491);
#1491=VECTOR('',#1492,0.0254);
#1492=DIRECTION('',(0.0,0.0,-1.0));
#1483=ORIENTED_EDGE('',*,*,#1484,.F.);
#1496=CARTESIAN_POINT('',(-0.701,-0.389,5.248));
#1495=VERTEX_POINT('',#1496);
#1494=EDGE_CURVE('',#1495,#1485,#1499,.T.);
#1499=LINE('',#1496,#1501);
#1501=VECTOR('',#1502,1.58220776198839);
#1502=DIRECTION('',(1.0,0.0,0.0));
#1493=ORIENTED_EDGE('',*,*,#1494,.F.);
#1504=EDGE_CURVE('',#1457,#1495,#1509,.T.);
#1509=LINE('',#1458,#1511);
#1511=VECTOR('',#1512,4.21132);
#1512=DIRECTION('',(0.0,0.0,1.0));
#1503=ORIENTED_EDGE('',*,*,#1504,.F.);
#1513=STYLED_ITEM('',(#52),#1514);
#1514=ADVANCED_FACE('',(#1520),#1515,.T.);
#1515=PLANE('',#1516);
#1516=AXIS2_PLACEMENT_3D('',#1517,#1518,#1519);
#1517=CARTESIAN_POINT('',(-0.676,0.389,1.037));
#1518=DIRECTION('',(0.0,1.0,0.0));
#1519=DIRECTION('',(0.,0.,1.));
#1520=FACE_OUTER_BOUND('',#1521,.T.);
#1521=EDGE_LOOP('',(#1522,#1532,#1542,#1552,#1562,#1572));
#1525=CARTESIAN_POINT('',(-0.701,0.389,1.037));
#1524=VERTEX_POINT('',#1525);
#1527=CARTESIAN_POINT('',(-0.676,0.389,1.037));
#1526=VERTEX_POINT('',#1527);
#1523=EDGE_CURVE('',#1524,#1526,#1528,.T.);
#1528=LINE('',#1525,#1530);
#1530=VECTOR('',#1531,0.0253999995691436);
#1531=DIRECTION('',(1.0,0.0,0.0));
#1522=ORIENTED_EDGE('',*,*,#1523,.F.);
#1535=CARTESIAN_POINT('',(-0.701,0.389,5.248));
#1534=VERTEX_POINT('',#1535);
#1533=EDGE_CURVE('',#1534,#1524,#1538,.T.);
#1538=LINE('',#1535,#1540);
#1540=VECTOR('',#1541,4.21132);
#1541=DIRECTION('',(0.0,0.0,-1.0));
#1532=ORIENTED_EDGE('',*,*,#1533,.F.);
#1545=CARTESIAN_POINT('',(0.881,0.389,5.248));
#1544=VERTEX_POINT('',#1545);
#1543=EDGE_CURVE('',#1544,#1534,#1548,.T.);
#1548=LINE('',#1545,#1550);
#1550=VECTOR('',#1551,1.58220776198839);
#1551=DIRECTION('',(-1.0,0.0,0.0));
#1542=ORIENTED_EDGE('',*,*,#1543,.F.);
#1555=CARTESIAN_POINT('',(0.881,0.389,5.223));
#1554=VERTEX_POINT('',#1555);
#1553=EDGE_CURVE('',#1554,#1544,#1558,.T.);
#1558=LINE('',#1555,#1560);
#1560=VECTOR('',#1561,0.0254);
#1561=DIRECTION('',(0.0,0.0,1.0));
#1552=ORIENTED_EDGE('',*,*,#1553,.F.);
#1565=CARTESIAN_POINT('',(-0.676,0.389,5.223));
#1564=VERTEX_POINT('',#1565);
#1563=EDGE_CURVE('',#1564,#1554,#1568,.T.);
#1568=LINE('',#1565,#1570);
#1570=VECTOR('',#1571,1.55680776241924);
#1571=DIRECTION('',(1.0,0.0,0.0));
#1562=ORIENTED_EDGE('',*,*,#1563,.F.);
#1573=EDGE_CURVE('',#1526,#1564,#1578,.T.);
#1578=LINE('',#1527,#1580);
#1580=VECTOR('',#1581,4.18592);
#1581=DIRECTION('',(0.0,0.0,1.0));
#1572=ORIENTED_EDGE('',*,*,#1573,.F.);
#1582=STYLED_ITEM('',(#52),#1583);
#1583=ADVANCED_FACE('',(#1589),#1584,.T.);
#1584=PLANE('',#1585);
#1585=AXIS2_PLACEMENT_3D('',#1586,#1587,#1588);
#1586=CARTESIAN_POINT('',(0.881,-0.389,5.223));
#1587=DIRECTION('',(1.0,0.0,0.0));
#1588=DIRECTION('',(0.,0.,1.));
#1589=FACE_OUTER_BOUND('',#1590,.T.);
#1590=EDGE_LOOP('',(#1591,#1601,#1611,#1621));
#1592=EDGE_CURVE('',#1554,#1475,#1597,.T.);
#1597=LINE('',#1555,#1599);
#1599=VECTOR('',#1600,0.777981344095448);
#1600=DIRECTION('',(0.0,-1.0,0.0));
#1591=ORIENTED_EDGE('',*,*,#1592,.F.);
#1601=ORIENTED_EDGE('',*,*,#1553,.T.);
#1612=EDGE_CURVE('',#1485,#1544,#1617,.T.);
#1617=LINE('',#1486,#1619);
#1619=VECTOR('',#1620,0.777981344095448);
#1620=DIRECTION('',(0.0,1.0,0.0));
#1611=ORIENTED_EDGE('',*,*,#1612,.F.);
#1621=ORIENTED_EDGE('',*,*,#1484,.T.);
#1631=STYLED_ITEM('color',(#52),#1632);
#1632=ADVANCED_FACE($,(#1638),#1633,.T.);
#1633=CYLINDRICAL_SURFACE($,#1634,2.0193);
#1634=AXIS2_PLACEMENT_3D($,#1635,#1636,#1637);
#1635=CARTESIAN_POINT('',(1.28,0.0,1.037));
#1636=DIRECTION('',(0.,0.,1.));
#1637=DIRECTION('',(-1.,0.,0.));
#1638=FACE_OUTER_BOUND($,#1639,.T.);
#1639=EDGE_LOOP($,(#1662, #1640, #1672, #1651));
#1662=ORIENTED_EDGE('',*,*,#1533,.T.);
#1641=EDGE_CURVE($,#1457,#1524,#1646,.T.);
#1646=CIRCLE($,#1647,2.0193);
#1648=CARTESIAN_POINT('',(1.28,0.0,1.037));
#1647=AXIS2_PLACEMENT_3D($,#1648,#1649,#1650);
#1649=DIRECTION('',(0.0,0.0,-1.0));
#1650=DIRECTION('',(-1.0,0.0,0.0));
#1640=ORIENTED_EDGE('',*,*,#1641,.F.);
#1672=ORIENTED_EDGE('',*,*,#1504,.T.);
#1652=EDGE_CURVE($,#1534,#1495,#1657,.T.);
#1657=CIRCLE($,#1658,2.0193);
#1659=CARTESIAN_POINT('',(1.28,0.0,5.248));
#1658=AXIS2_PLACEMENT_3D($,#1659,#1660,#1661);
#1660=DIRECTION('',(0.0,0.0,1.0));
#1661=DIRECTION('',(1.0,0.0,0.0));
#1651=ORIENTED_EDGE('',*,*,#1652,.F.);
#1684=STYLED_ITEM('color',(#52),#1685);
#1685=ADVANCED_FACE($,(#1691),#1686,.F.);
#1686=CYLINDRICAL_SURFACE($,#1687,1.9939);
#1687=AXIS2_PLACEMENT_3D($,#1688,#1689,#1690);
#1688=CARTESIAN_POINT('',(1.28,0.0,1.037));
#1689=DIRECTION('',(0.,0.,1.));
#1690=DIRECTION('',(-1.,0.,0.));
#1691=FACE_OUTER_BOUND($,#1692,.T.);
#1692=EDGE_LOOP($,(#1715, #1693, #1725, #1704));
#1715=ORIENTED_EDGE('',*,*,#1464,.T.);
#1694=EDGE_CURVE($,#1526,#1455,#1699,.T.);
#1699=CIRCLE($,#1700,1.9939);
#1700=AXIS2_PLACEMENT_3D($,#1648,#1702,#1703);
#1702=DIRECTION('',(0.0,0.0,1.0));
#1703=DIRECTION('',(1.0,0.0,0.0));
#1693=ORIENTED_EDGE('',*,*,#1694,.F.);
#1725=ORIENTED_EDGE('',*,*,#1573,.T.);
#1705=EDGE_CURVE($,#1465,#1564,#1710,.T.);
#1710=CIRCLE($,#1711,1.9939);
#1712=CARTESIAN_POINT('',(1.28,0.0,5.223));
#1711=AXIS2_PLACEMENT_3D($,#1712,#1713,#1714);
#1713=DIRECTION('',(0.0,0.0,-1.0));
#1714=DIRECTION('',(-1.0,0.0,0.0));
#1704=ORIENTED_EDGE('',*,*,#1705,.F.);
#1737=STYLED_ITEM('color',(#52),#1738);
#1738=ADVANCED_FACE($,(#1744),#1739,.T.);
#1739=PLANE($,#1740);
#1740=AXIS2_PLACEMENT_3D($,#1741,#1742,#1743);
#1741=CARTESIAN_POINT('',(-0.701,-0.389,1.037));
#1742=DIRECTION('',(0.0,0.0,-1.0));
#1743=DIRECTION('',(1.,0.,0.));
#1744=FACE_OUTER_BOUND($,#1745,.T.);
#1745=EDGE_LOOP($,(#1748, #1758, #1769, #1779));
#1748=ORIENTED_EDGE('',*,*,#1454,.T.);
#1758=ORIENTED_EDGE('',*,*,#1641,.T.);
#1769=ORIENTED_EDGE('',*,*,#1523,.T.);
#1779=ORIENTED_EDGE('',*,*,#1694,.T.);
#1790=STYLED_ITEM('color',(#52),#1791);
#1791=ADVANCED_FACE($,(#1797),#1792,.T.);
#1792=PLANE($,#1793);
#1793=AXIS2_PLACEMENT_3D($,#1794,#1795,#1796);
#1794=CARTESIAN_POINT('',(0.881,0.389,5.223));
#1795=DIRECTION('',(0.0,0.0,-1.0));
#1796=DIRECTION('',(1.,0.,0.));
#1797=FACE_OUTER_BOUND($,#1798,.T.);
#1798=EDGE_LOOP($,(#1801, #1811, #1821, #1831));
#1801=ORIENTED_EDGE('',*,*,#1563,.T.);
#1811=ORIENTED_EDGE('',*,*,#1592,.T.);
#1821=ORIENTED_EDGE('',*,*,#1474,.T.);
#1831=ORIENTED_EDGE('',*,*,#1705,.T.);
#1842=STYLED_ITEM('color',(#52),#1843);
#1843=ADVANCED_FACE($,(#1849),#1844,.T.);
#1844=PLANE($,#1845);
#1845=AXIS2_PLACEMENT_3D($,#1846,#1847,#1848);
#1846=CARTESIAN_POINT('',(0.881,-0.389,5.248));
#1847=DIRECTION('',(0.0,0.0,1.0));
#1848=DIRECTION('',(1.,0.,0.));
#1849=FACE_OUTER_BOUND($,#1850,.T.);
#1850=EDGE_LOOP($,(#1853, #1863, #1873, #1883));
#1853=ORIENTED_EDGE('',*,*,#1494,.T.);
#1863=ORIENTED_EDGE('',*,*,#1612,.T.);
#1873=ORIENTED_EDGE('',*,*,#1543,.T.);
#1883=ORIENTED_EDGE('',*,*,#1652,.T.);
ENDSEC;
END-ISO-10303-21;
