G04*
G04 #@! TF.GenerationSoftware,Altium Limited,Altium Designer,24.9.1 (31)*
G04*
G04 Layer_Color=32896*
%FSLAX25Y25*%
%MOIN*%
G70*
G04*
G04 #@! TF.SameCoordinates,84196CEC-55BF-4F07-9BBD-11672216EFEB*
G04*
G04*
G04 #@! TF.FilePolarity,Positive*
G04*
G01*
G75*
%ADD10C,0.00600*%
%ADD11C,0.02000*%
%ADD12C,0.01000*%
%ADD33C,0.00787*%
D10*
X48779Y42250D02*
G03*
X48779Y42250I-500J0D01*
G01*
X22000Y150500D02*
X53000D01*
Y139500D02*
Y150500D01*
X22000Y139500D02*
X53000D01*
X22000D02*
Y150500D01*
X41029Y36160D02*
Y40150D01*
X47529D01*
X41029Y27350D02*
Y31340D01*
Y27350D02*
X47529D01*
Y32410D02*
Y35090D01*
D11*
X20000Y145000D02*
G03*
X20000Y145000I-1500J0D01*
G01*
D12*
X46501Y131999D02*
X46001Y131500D01*
Y130500D01*
X46501Y130000D01*
X47001D01*
X47501Y130500D01*
Y131500D01*
X48000Y131999D01*
X48500D01*
X49000Y131500D01*
Y130500D01*
X48500Y130000D01*
X46001Y132999D02*
Y133999D01*
Y133499D01*
X49000D01*
Y132999D01*
Y133999D01*
X46501Y137498D02*
X46001Y136998D01*
Y135998D01*
X46501Y135498D01*
X48500D01*
X49000Y135998D01*
Y136998D01*
X48500Y137498D01*
X47501D01*
Y136498D01*
X39000Y129500D02*
X36001D01*
Y131000D01*
X36501Y131499D01*
X37501D01*
X38000Y131000D01*
Y129500D01*
X36001Y132499D02*
X39000D01*
X38000Y133499D01*
X39000Y134498D01*
X36001D01*
X39000Y135498D02*
X36001D01*
Y136998D01*
X36501Y137497D01*
X37501D01*
X38000Y136998D01*
Y135498D01*
Y136498D02*
X39000Y137497D01*
X26501Y131499D02*
X26001Y131000D01*
Y130000D01*
X26501Y129500D01*
X28500D01*
X29000Y130000D01*
Y131000D01*
X28500Y131499D01*
X27501D01*
Y130500D01*
X29000Y132499D02*
X26001D01*
X29000Y134498D01*
X26001D01*
Y135498D02*
X29000D01*
Y136998D01*
X28500Y137497D01*
X26501D01*
X26001Y136998D01*
Y135498D01*
X72499Y32500D02*
Y35500D01*
X71000D01*
X70500Y35000D01*
Y34000D01*
X71000Y33500D01*
X72499D01*
X71500D02*
X70500Y32500D01*
X69500Y35500D02*
X67501D01*
Y35000D01*
X69500Y33000D01*
Y32500D01*
X72499Y27501D02*
Y30500D01*
X71000D01*
X70500Y30000D01*
Y29000D01*
X71000Y28500D01*
X72499D01*
X71500D02*
X70500Y27501D01*
X69500Y30000D02*
X69000Y30500D01*
X68001D01*
X67501Y30000D01*
Y29500D01*
X68001Y29000D01*
X67501Y28500D01*
Y28000D01*
X68001Y27501D01*
X69000D01*
X69500Y28000D01*
Y28500D01*
X69000Y29000D01*
X69500Y29500D01*
Y30000D01*
X69000Y29000D02*
X68001D01*
X72499Y37501D02*
Y40499D01*
X71000D01*
X70500Y40000D01*
Y39000D01*
X71000Y38500D01*
X72499D01*
X71500D02*
X70500Y37501D01*
X67501Y40499D02*
X68501Y40000D01*
X69500Y39000D01*
Y38000D01*
X69000Y37501D01*
X68001D01*
X67501Y38000D01*
Y38500D01*
X68001Y39000D01*
X69500D01*
X56001Y142499D02*
X57000D01*
X56501D01*
Y140000D01*
X57000Y139500D01*
X57500D01*
X58000Y140000D01*
X55001Y139500D02*
X54001D01*
X54501D01*
Y142499D01*
X55001Y141999D01*
X70501Y61499D02*
X71000Y61999D01*
X72000D01*
X72500Y61499D01*
Y59500D01*
X72000Y59000D01*
X71000D01*
X70501Y59500D01*
X69501Y61499D02*
X69001Y61999D01*
X68001D01*
X67502Y61499D01*
Y60999D01*
X68001Y60500D01*
X68501D01*
X68001D01*
X67502Y60000D01*
Y59500D01*
X68001Y59000D01*
X69001D01*
X69501Y59500D01*
X49500Y69999D02*
Y67500D01*
X49000Y67000D01*
X48000D01*
X47501Y67500D01*
Y69999D01*
X46501Y67000D02*
X45501D01*
X46001D01*
Y69999D01*
X46501Y69499D01*
X46500Y44499D02*
Y42000D01*
X46000Y41500D01*
X45000D01*
X44501Y42000D01*
Y44499D01*
X41502Y41500D02*
X43501D01*
X41502Y43499D01*
Y43999D01*
X42001Y44499D01*
X43001D01*
X43501Y43999D01*
X72551Y68500D02*
Y71499D01*
X71052D01*
X70552Y70999D01*
Y69999D01*
X71052Y69500D01*
X72551D01*
X71552D02*
X70552Y68500D01*
X67553Y71499D02*
X69552D01*
Y69999D01*
X68553Y70499D01*
X68053D01*
X67553Y69999D01*
Y69000D01*
X68053Y68500D01*
X69052D01*
X69552Y69000D01*
X72504Y63700D02*
Y66699D01*
X71004D01*
X70505Y66199D01*
Y65200D01*
X71004Y64700D01*
X72504D01*
X71504D02*
X70505Y63700D01*
X69505D02*
X68505D01*
X69005D01*
Y66699D01*
X69505Y66199D01*
X72598Y54100D02*
Y57099D01*
X71099D01*
X70599Y56599D01*
Y55599D01*
X71099Y55100D01*
X72598D01*
X71599D02*
X70599Y54100D01*
X67600D02*
X69599D01*
X67600Y56099D01*
Y56599D01*
X68100Y57099D01*
X69100D01*
X69599Y56599D01*
X72504Y49300D02*
Y52299D01*
X71005D01*
X70505Y51799D01*
Y50800D01*
X71005Y50300D01*
X72504D01*
X71504D02*
X70505Y49300D01*
X69505Y51799D02*
X69005Y52299D01*
X68006D01*
X67506Y51799D01*
Y51299D01*
X68006Y50800D01*
X68506D01*
X68006D01*
X67506Y50300D01*
Y49800D01*
X68006Y49300D01*
X69005D01*
X69505Y49800D01*
X72504Y44500D02*
Y47499D01*
X71004D01*
X70505Y46999D01*
Y46000D01*
X71004Y45500D01*
X72504D01*
X71504D02*
X70505Y44500D01*
X68006D02*
Y47499D01*
X69505Y46000D01*
X67506D01*
D33*
X43524Y53398D02*
X46575D01*
X43622Y65602D02*
X51398D01*
M02*
