G04*
G04 #@! TF.GenerationSoftware,Altium Limited,Altium Designer,24.9.1 (31)*
G04*
G04 Layer_Physical_Order=2*
G04 Layer_Color=16711680*
%FSLAX25Y25*%
%MOIN*%
G70*
G04*
G04 #@! TF.SameCoordinates,84196CEC-55BF-4F07-9BBD-11672216EFEB*
G04*
G04*
G04 #@! TF.FilePolarity,Positive*
G04*
G01*
G75*
%ADD11C,0.02000*%
%ADD12C,0.01000*%
%ADD16R,0.05000X0.05000*%
%ADD17C,0.05000*%
%ADD18C,0.06500*%
%ADD22C,0.01200*%
%ADD23C,0.04200*%
%ADD24R,0.02756X0.03543*%
%ADD25R,0.03347X0.03543*%
%ADD26R,0.03937X0.02362*%
%ADD27R,0.05200X0.02200*%
G36*
X73203Y133297D02*
Y19703D01*
X54230Y730D01*
X677D01*
Y152396D01*
X54104D01*
X73203Y133297D01*
D02*
G37*
%LPC*%
G36*
X28060Y149250D02*
X26941D01*
X25860Y148960D01*
X25061Y148499D01*
X25879Y147682D01*
X24818Y146621D01*
X24001Y147439D01*
X23540Y146640D01*
X23250Y145560D01*
Y144440D01*
X23540Y143360D01*
X24001Y142561D01*
X24818Y143379D01*
X25879Y142318D01*
X25061Y141501D01*
X25860Y141040D01*
X26941Y140750D01*
X28060D01*
X29140Y141040D01*
X29939Y141501D01*
X29121Y142318D01*
X30182Y143379D01*
X30999Y142561D01*
X31460Y143360D01*
X31750Y144440D01*
Y145560D01*
X31460Y146640D01*
X30999Y147439D01*
X30182Y146621D01*
X29121Y147682D01*
X29939Y148499D01*
X29140Y148960D01*
X28060Y149250D01*
D02*
G37*
G36*
X11408Y148100D02*
X10592D01*
X9804Y147889D01*
X9403Y147658D01*
X10228Y146832D01*
X9168Y145772D01*
X8343Y146597D01*
X8111Y146196D01*
X7900Y145408D01*
Y144592D01*
X8111Y143803D01*
X8519Y143096D01*
X8802Y142814D01*
X9087Y142467D01*
X8920Y141596D01*
X8577Y141004D01*
X8400Y140342D01*
Y139658D01*
X8577Y138996D01*
X8920Y138403D01*
X9204Y138120D01*
X9323Y137500D01*
X9204Y136880D01*
X8920Y136596D01*
X8577Y136003D01*
X8400Y135342D01*
Y134658D01*
X8577Y133996D01*
X8920Y133404D01*
X9204Y133120D01*
X9323Y132500D01*
X9204Y131880D01*
X8920Y131596D01*
X8577Y131003D01*
X8400Y130342D01*
Y129658D01*
X8577Y128996D01*
X8920Y128403D01*
X9204Y128120D01*
X9323Y127500D01*
X9204Y126880D01*
X8920Y126596D01*
X8577Y126004D01*
X8400Y125342D01*
Y124658D01*
X8577Y123996D01*
X8920Y123404D01*
X9204Y123120D01*
X9323Y122500D01*
X9204Y121880D01*
X8920Y121596D01*
X8577Y121003D01*
X8400Y120342D01*
Y119658D01*
X8577Y118996D01*
X8920Y118403D01*
X9204Y118120D01*
X9323Y117500D01*
X9204Y116880D01*
X8920Y116596D01*
X8577Y116004D01*
X8400Y115342D01*
Y114658D01*
X8577Y113996D01*
X8920Y113403D01*
X9204Y113120D01*
X9323Y112500D01*
X9204Y111880D01*
X8920Y111596D01*
X8577Y111003D01*
X8400Y110342D01*
Y109658D01*
X8577Y108996D01*
X8920Y108404D01*
X9204Y108120D01*
X9323Y107500D01*
X9204Y106880D01*
X8920Y106596D01*
X8577Y106003D01*
X8400Y105342D01*
Y104658D01*
X8577Y103996D01*
X8920Y103403D01*
X9204Y103120D01*
X9323Y102500D01*
X9204Y101880D01*
X8920Y101596D01*
X8577Y101004D01*
X8400Y100342D01*
Y99658D01*
X8577Y98996D01*
X8920Y98404D01*
X9204Y98120D01*
X9323Y97500D01*
X9204Y96880D01*
X8920Y96596D01*
X8577Y96004D01*
X8400Y95342D01*
Y94658D01*
X8577Y93996D01*
X8920Y93404D01*
X9204Y93120D01*
X9323Y92500D01*
X9204Y91880D01*
X8920Y91596D01*
X8577Y91004D01*
X8400Y90342D01*
Y89658D01*
X8577Y88996D01*
X8920Y88403D01*
X9204Y88120D01*
X9323Y87500D01*
X9204Y86880D01*
X8920Y86596D01*
X8577Y86004D01*
X8400Y85342D01*
Y84658D01*
X8577Y83996D01*
X8920Y83403D01*
X9204Y83120D01*
X9323Y82500D01*
X9204Y81880D01*
X8920Y81596D01*
X8577Y81003D01*
X8400Y80342D01*
Y79658D01*
X8577Y78996D01*
X8920Y78404D01*
X9204Y78120D01*
X9323Y77500D01*
X9204Y76880D01*
X8920Y76596D01*
X8577Y76003D01*
X8400Y75342D01*
Y74658D01*
X8577Y73996D01*
X8920Y73404D01*
X9204Y73120D01*
X9323Y72500D01*
X9204Y71880D01*
X8920Y71596D01*
X8577Y71004D01*
X8400Y70342D01*
Y69658D01*
X8577Y68996D01*
X8920Y68404D01*
X9204Y68120D01*
X9323Y67500D01*
X9204Y66880D01*
X8920Y66596D01*
X8577Y66004D01*
X8400Y65342D01*
Y64658D01*
X8577Y63996D01*
X8920Y63403D01*
X9204Y63120D01*
X9323Y62500D01*
X9204Y61880D01*
X8920Y61596D01*
X8577Y61004D01*
X8400Y60342D01*
Y59658D01*
X8577Y58996D01*
X8920Y58403D01*
X9204Y58120D01*
X9323Y57500D01*
X9204Y56880D01*
X8920Y56596D01*
X8577Y56003D01*
X8400Y55342D01*
Y54658D01*
X8577Y53996D01*
X8920Y53404D01*
X9204Y53120D01*
X9323Y52500D01*
X9204Y51880D01*
X8920Y51596D01*
X8577Y51003D01*
X8400Y50342D01*
Y49658D01*
X8577Y48996D01*
X8920Y48403D01*
X9404Y47919D01*
X9996Y47577D01*
X10658Y47400D01*
X11342D01*
X12004Y47577D01*
X12596Y47919D01*
X13081Y48403D01*
X13423Y48996D01*
X13600Y49658D01*
Y50342D01*
X13423Y51003D01*
X13081Y51596D01*
X12797Y51880D01*
X12677Y52500D01*
X12797Y53120D01*
X13081Y53404D01*
X13423Y53996D01*
X13600Y54658D01*
Y55342D01*
X13423Y56003D01*
X13081Y56596D01*
X12797Y56880D01*
X12677Y57500D01*
X12797Y58120D01*
X13081Y58403D01*
X13423Y58996D01*
X13600Y59658D01*
Y60342D01*
X13423Y61004D01*
X13081Y61596D01*
X12797Y61880D01*
X12677Y62500D01*
X12797Y63120D01*
X13081Y63403D01*
X13423Y63996D01*
X13600Y64658D01*
Y65342D01*
X13423Y66004D01*
X13081Y66596D01*
X12797Y66880D01*
X12677Y67500D01*
X12797Y68120D01*
X13081Y68404D01*
X13423Y68996D01*
X13600Y69658D01*
Y70342D01*
X13423Y71004D01*
X13081Y71596D01*
X12797Y71880D01*
X12677Y72500D01*
X12797Y73120D01*
X13081Y73404D01*
X13423Y73996D01*
X13600Y74658D01*
Y75342D01*
X13423Y76003D01*
X13081Y76596D01*
X12797Y76880D01*
X12677Y77500D01*
X12797Y78120D01*
X13081Y78404D01*
X13423Y78996D01*
X13600Y79658D01*
Y80342D01*
X13423Y81003D01*
X13081Y81596D01*
X12797Y81880D01*
X12677Y82500D01*
X12797Y83120D01*
X13081Y83403D01*
X13423Y83996D01*
X13600Y84658D01*
Y85342D01*
X13423Y86004D01*
X13081Y86596D01*
X12797Y86880D01*
X12677Y87500D01*
X12797Y88120D01*
X13081Y88403D01*
X13423Y88996D01*
X13600Y89658D01*
Y90342D01*
X13423Y91004D01*
X13081Y91596D01*
X12797Y91880D01*
X12677Y92500D01*
X12797Y93120D01*
X13081Y93404D01*
X13355Y93878D01*
X51035D01*
X68878Y76035D01*
Y41965D01*
X67685Y40771D01*
X66685Y41186D01*
Y41272D01*
X66128D01*
X65714Y42272D01*
X65770Y42328D01*
X65991Y42658D01*
X66068Y43049D01*
Y43728D01*
X66685D01*
Y48272D01*
X66685D01*
Y48528D01*
X66685D01*
Y52328D01*
X66685Y53072D01*
X66685Y54072D01*
Y57872D01*
X66685D01*
Y58128D01*
X66685D01*
Y62672D01*
X66685D01*
Y62928D01*
X66685D01*
Y67228D01*
X67185D01*
Y69250D01*
X66065D01*
Y70750D01*
X67185D01*
Y72772D01*
X65557D01*
Y71652D01*
X64057D01*
Y72772D01*
X62429D01*
Y70750D01*
X63549D01*
Y69250D01*
X62429D01*
Y67228D01*
X62929D01*
Y63769D01*
X62027Y63269D01*
X61632Y63421D01*
X61173Y63879D01*
Y67472D01*
X61173D01*
Y67728D01*
X61173D01*
Y72272D01*
X61107D01*
X60417Y72901D01*
X60332Y73330D01*
X60088Y73694D01*
X60088Y73694D01*
X59386Y74397D01*
X59022Y74640D01*
X58592Y74726D01*
X58592Y74726D01*
X47104D01*
X47104Y74726D01*
X46675Y74640D01*
X46311Y74397D01*
X42707Y70793D01*
X42464Y70429D01*
X42378Y70000D01*
X42378Y70000D01*
Y65787D01*
X42055Y64921D01*
X41378Y64921D01*
X37118D01*
Y64769D01*
X35893D01*
X35081Y65581D01*
X34585Y65913D01*
X34000Y66029D01*
X27000D01*
Y67500D01*
X21000D01*
Y65932D01*
X20403D01*
X19818Y65816D01*
X19321Y65484D01*
X16919Y63081D01*
X16587Y62585D01*
X16471Y62000D01*
Y50081D01*
X16158Y49901D01*
X15599Y49342D01*
X15204Y48658D01*
X15000Y47895D01*
Y47105D01*
X15204Y46342D01*
X15599Y45658D01*
X16158Y45099D01*
X16471Y44919D01*
Y37500D01*
X16587Y36915D01*
X16919Y36419D01*
X20669Y32669D01*
X21165Y32337D01*
X21639Y32243D01*
X21807Y31970D01*
X21978Y31221D01*
X21599Y30842D01*
X21204Y30158D01*
X21000Y29395D01*
Y28605D01*
X21204Y27842D01*
X21599Y27158D01*
X22158Y26599D01*
X22842Y26204D01*
X23605Y26000D01*
X24395D01*
X25158Y26204D01*
X25842Y26599D01*
X26401Y27158D01*
X26796Y27842D01*
X26805Y27878D01*
X29035D01*
X32707Y24207D01*
X32707Y24207D01*
X33071Y23964D01*
X33500Y23878D01*
X64000D01*
X64000Y23878D01*
X64429Y23964D01*
X64793Y24207D01*
X65677Y25091D01*
X65677Y25091D01*
X65920Y25455D01*
X66006Y25884D01*
Y26728D01*
X66685D01*
Y30728D01*
X66685Y31272D01*
X66685Y32272D01*
Y36272D01*
X66685D01*
Y36728D01*
X67061Y37573D01*
X67500Y37878D01*
X67929Y37964D01*
X68293Y38207D01*
X70793Y40707D01*
X70793Y40707D01*
X71036Y41071D01*
X71122Y41500D01*
Y76500D01*
X71122Y76500D01*
X71036Y76929D01*
X70793Y77293D01*
X70793Y77293D01*
X52293Y95793D01*
X51929Y96036D01*
X51500Y96122D01*
X51500Y96122D01*
X13355D01*
X13081Y96596D01*
X12797Y96880D01*
X12677Y97500D01*
X12797Y98120D01*
X13081Y98404D01*
X13423Y98996D01*
X13600Y99658D01*
Y100342D01*
X13423Y101004D01*
X13081Y101596D01*
X12797Y101880D01*
X12677Y102500D01*
X12797Y103120D01*
X13081Y103403D01*
X13423Y103996D01*
X13600Y104658D01*
Y105342D01*
X13423Y106003D01*
X13081Y106596D01*
X12797Y106880D01*
X12677Y107500D01*
X12797Y108120D01*
X13081Y108404D01*
X13423Y108996D01*
X13600Y109658D01*
Y110342D01*
X13423Y111003D01*
X13081Y111596D01*
X12797Y111880D01*
X12677Y112500D01*
X12797Y113120D01*
X13081Y113403D01*
X13423Y113996D01*
X13600Y114658D01*
Y115342D01*
X13423Y116004D01*
X13081Y116596D01*
X12797Y116880D01*
X12677Y117500D01*
X12797Y118120D01*
X13081Y118403D01*
X13423Y118996D01*
X13600Y119658D01*
Y120342D01*
X13423Y121003D01*
X13081Y121596D01*
X12797Y121880D01*
X12677Y122500D01*
X12797Y123120D01*
X13081Y123404D01*
X13423Y123996D01*
X13600Y124658D01*
Y125342D01*
X13423Y126004D01*
X13081Y126596D01*
X12797Y126880D01*
X12677Y127500D01*
X12797Y128120D01*
X13081Y128403D01*
X13423Y128996D01*
X13600Y129658D01*
Y130342D01*
X13423Y131003D01*
X13081Y131596D01*
X12797Y131880D01*
X12677Y132500D01*
X12797Y133120D01*
X13081Y133404D01*
X13423Y133996D01*
X13600Y134658D01*
Y135342D01*
X13423Y136003D01*
X13081Y136596D01*
X12797Y136880D01*
X12677Y137500D01*
X12797Y138120D01*
X13081Y138403D01*
X13423Y138996D01*
X13600Y139658D01*
Y140342D01*
X13423Y141004D01*
X13081Y141596D01*
X12914Y142467D01*
X13198Y142814D01*
X13481Y143096D01*
X13889Y143803D01*
X14100Y144592D01*
Y145408D01*
X13889Y146196D01*
X13658Y146597D01*
X12833Y145772D01*
X11772Y146832D01*
X12597Y147658D01*
X12197Y147889D01*
X11408Y148100D01*
D02*
G37*
G36*
X47994Y148750D02*
X47006D01*
X46053Y148494D01*
X45197Y148001D01*
X44499Y147302D01*
X44006Y146448D01*
X43750Y145494D01*
Y144506D01*
X44006Y143552D01*
X44499Y142698D01*
X45197Y141999D01*
X46053Y141506D01*
X47006Y141250D01*
X47994D01*
X48947Y141506D01*
X49803Y141999D01*
X50501Y142698D01*
X50994Y143552D01*
X51250Y144506D01*
Y145494D01*
X50994Y146448D01*
X50501Y147302D01*
X49803Y148001D01*
X48947Y148494D01*
X47994Y148750D01*
D02*
G37*
G36*
X37994D02*
X37006D01*
X36053Y148494D01*
X35197Y148001D01*
X34499Y147302D01*
X34006Y146448D01*
X33750Y145494D01*
Y144506D01*
X34006Y143552D01*
X34499Y142698D01*
X35197Y141999D01*
X36053Y141506D01*
X37006Y141250D01*
X37994D01*
X38947Y141506D01*
X39803Y141999D01*
X40501Y142698D01*
X40994Y143552D01*
X41250Y144506D01*
Y145494D01*
X40994Y146448D01*
X40501Y147302D01*
X39803Y148001D01*
X38947Y148494D01*
X37994Y148750D01*
D02*
G37*
G36*
X57461Y136000D02*
X56539D01*
X55649Y135761D01*
X55110Y135450D01*
X55929Y134632D01*
X54868Y133571D01*
X54050Y134390D01*
X53738Y133851D01*
X53500Y132961D01*
Y132039D01*
X53738Y131149D01*
X54050Y130610D01*
X54868Y131429D01*
X55929Y130368D01*
X55110Y129550D01*
X55649Y129238D01*
X56539Y129000D01*
X57461D01*
X58351Y129238D01*
X58890Y129550D01*
X58071Y130368D01*
X59132Y131429D01*
X59950Y130610D01*
X60261Y131149D01*
X60500Y132039D01*
Y132961D01*
X60261Y133851D01*
X59950Y134390D01*
X59132Y133571D01*
X58071Y134632D01*
X58890Y135450D01*
X58351Y135761D01*
X57461Y136000D01*
D02*
G37*
G36*
X18461Y77000D02*
X17539D01*
X16649Y76762D01*
X16110Y76450D01*
X16929Y75632D01*
X15868Y74571D01*
X15050Y75390D01*
X14739Y74851D01*
X14500Y73961D01*
Y73039D01*
X14739Y72149D01*
X15050Y71610D01*
X15868Y72429D01*
X16929Y71368D01*
X16110Y70550D01*
X16649Y70239D01*
X17539Y70000D01*
X18461D01*
X19351Y70239D01*
X19890Y70550D01*
X19071Y71368D01*
X20132Y72429D01*
X20950Y71610D01*
X21261Y72149D01*
X21500Y73039D01*
Y73961D01*
X21261Y74851D01*
X20950Y75390D01*
X20132Y74571D01*
X19071Y75632D01*
X19890Y76450D01*
X19351Y76762D01*
X18461Y77000D01*
D02*
G37*
G36*
X11461Y32000D02*
X10539D01*
X9649Y31762D01*
X9110Y31450D01*
X9929Y30632D01*
X8868Y29571D01*
X8050Y30390D01*
X7739Y29851D01*
X7500Y28961D01*
Y28039D01*
X7739Y27149D01*
X8050Y26610D01*
X8868Y27429D01*
X9929Y26368D01*
X9110Y25550D01*
X9649Y25238D01*
X10539Y25000D01*
X11461D01*
X12351Y25238D01*
X12890Y25550D01*
X12071Y26368D01*
X13132Y27429D01*
X13950Y26610D01*
X14262Y27149D01*
X14500Y28039D01*
Y28961D01*
X14262Y29851D01*
X13950Y30390D01*
X13132Y29571D01*
X12071Y30632D01*
X12890Y31450D01*
X12351Y31762D01*
X11461Y32000D01*
D02*
G37*
%LPD*%
G36*
X57418Y72272D02*
Y67728D01*
X57417D01*
Y67472D01*
X57418D01*
Y63172D01*
X56721D01*
Y61150D01*
X57841D01*
Y59650D01*
X56721D01*
Y57628D01*
X56303Y56801D01*
X54168D01*
X53382Y57319D01*
Y58750D01*
X52262D01*
Y60250D01*
X53382D01*
Y61681D01*
X52882D01*
Y64921D01*
X47945D01*
Y63816D01*
X47586D01*
X47196Y63739D01*
X46865Y63518D01*
X46279Y62932D01*
X46058Y62601D01*
X45980Y62211D01*
Y45500D01*
X46058Y45110D01*
X46279Y44779D01*
X49279Y41779D01*
X49610Y41558D01*
X50000Y41480D01*
X56504D01*
X56627Y41452D01*
X56943Y40354D01*
X56710Y40122D01*
X56000D01*
X56000Y40122D01*
X55571Y40036D01*
X55207Y39793D01*
X54035Y38622D01*
X51100D01*
Y39100D01*
X44900D01*
Y36279D01*
X44900Y35900D01*
X44837Y35847D01*
X44043Y35350D01*
X37843D01*
Y35279D01*
X28409D01*
X27500Y35500D01*
Y38250D01*
X26380D01*
Y39750D01*
X27500D01*
Y42500D01*
X24750D01*
Y41380D01*
X23250D01*
Y42500D01*
X20500D01*
Y42500D01*
X19529Y42571D01*
Y44919D01*
X19842Y45099D01*
X20401Y45658D01*
X20796Y46342D01*
X21000Y47105D01*
Y47895D01*
X20796Y48658D01*
X20401Y49342D01*
X19842Y49901D01*
X19529Y50081D01*
Y61153D01*
X20000Y61524D01*
X21000Y61500D01*
Y61500D01*
X27000D01*
Y62971D01*
X33367D01*
X34179Y62159D01*
X34675Y61827D01*
X35260Y61711D01*
X37118D01*
Y61559D01*
X42055Y61559D01*
X42378Y60693D01*
Y58307D01*
X42055Y57441D01*
X37118D01*
Y56881D01*
X35142D01*
X35142Y56881D01*
X34713Y56796D01*
X34349Y56553D01*
X34349Y56553D01*
X33418Y55622D01*
X26805D01*
X26796Y55658D01*
X26401Y56342D01*
X25842Y56901D01*
X25158Y57296D01*
X24395Y57500D01*
X23605D01*
X22842Y57296D01*
X22158Y56901D01*
X21599Y56342D01*
X21204Y55658D01*
X21000Y54895D01*
Y54105D01*
X21204Y53342D01*
X21599Y52658D01*
X22158Y52099D01*
X22842Y51704D01*
X23605Y51500D01*
X24395D01*
X25158Y51704D01*
X25842Y52099D01*
X26401Y52658D01*
X26796Y53342D01*
X26805Y53378D01*
X33882D01*
X33883Y53378D01*
X34312Y53464D01*
X34676Y53707D01*
X35607Y54638D01*
X37118D01*
Y54079D01*
X42055D01*
Y54079D01*
X42898Y54458D01*
X42929Y54464D01*
X43293Y54707D01*
X44293Y55707D01*
X44293Y55707D01*
X44536Y56071D01*
X44622Y56500D01*
Y69535D01*
X47569Y72483D01*
X56505D01*
X57418Y72272D01*
D02*
G37*
D11*
X59045Y33750D02*
X59295Y34000D01*
X40943Y33750D02*
X59045D01*
X18000Y37500D02*
X21750Y33750D01*
X40943D01*
X18000Y37500D02*
Y47500D01*
Y62000D01*
X20403Y64403D02*
X23903D01*
X18000Y62000D02*
X20403Y64403D01*
X24000Y64500D02*
X29500D01*
X34000D01*
X35260Y63240D01*
X39587D01*
D12*
X47586Y62797D02*
X49970D01*
X47000Y45500D02*
Y62211D01*
X49970Y62797D02*
X50414Y63240D01*
X47000Y62211D02*
X47586Y62797D01*
X65000Y46000D02*
Y51000D01*
X65049Y43049D02*
Y45951D01*
X65000Y46000D02*
X65049Y45951D01*
X50000Y42500D02*
X64500D01*
X65049Y43049D01*
X47000Y45500D02*
X50000Y42500D01*
X59094Y51000D02*
Y55406D01*
D16*
X24000Y64500D02*
D03*
Y39000D02*
D03*
D17*
Y54500D02*
D03*
Y29000D02*
D03*
X18000Y73500D02*
D03*
Y47500D02*
D03*
X52500Y48000D02*
D03*
X57000Y132500D02*
D03*
X11000Y28500D02*
D03*
D18*
X27500Y145000D02*
D03*
X37500D02*
D03*
X47500D02*
D03*
D22*
X64884Y28884D02*
X65000Y29000D01*
X24000D02*
X29500D01*
X47104Y73604D02*
X58592D01*
X43500Y56500D02*
Y70000D01*
X47104Y73604D01*
X59268Y65024D02*
Y69976D01*
X23903Y64403D02*
X24000Y64500D01*
X11000Y95000D02*
X51500D01*
X70000Y41500D02*
Y76500D01*
X51500Y95000D02*
X70000Y76500D01*
X59295Y70000D02*
Y72901D01*
X58592Y73604D02*
X59295Y72901D01*
X50493Y55680D02*
X59215D01*
X59295Y55600D01*
X64610Y55598D02*
X64709Y55500D01*
X64512Y60401D02*
X64610Y60303D01*
Y55598D02*
Y60303D01*
X64512Y60401D02*
X64657Y60547D01*
Y64854D02*
X64803Y65000D01*
X64657Y60547D02*
Y64854D01*
X52500Y48000D02*
X54500Y46000D01*
X59291D01*
X42500Y55500D02*
X43500Y56500D01*
X65000Y39000D02*
X67500D01*
X70000Y41500D01*
X59268Y65024D02*
X59291Y65000D01*
X39847Y55500D02*
X42500D01*
X39587Y55760D02*
X39847Y55500D01*
X11000Y95000D02*
X11000Y95000D01*
X65000Y34000D02*
Y39000D01*
X64884Y25884D02*
Y28884D01*
X33500Y25000D02*
X64000D01*
X64884Y25884D01*
X29500Y29000D02*
X33500Y25000D01*
X48000Y37500D02*
X54500D01*
X56000Y39000D01*
X59488D01*
X48000Y30000D02*
X54000D01*
X55000Y29000D02*
X59488D01*
X54000Y30000D02*
X55000Y29000D01*
X35142Y55760D02*
X39587D01*
X33883Y54500D02*
X35142Y55760D01*
X24000Y54500D02*
X33883D01*
D23*
X11000Y145000D02*
D03*
Y140000D02*
D03*
Y135000D02*
D03*
Y130000D02*
D03*
Y125000D02*
D03*
Y120000D02*
D03*
Y115000D02*
D03*
Y110000D02*
D03*
Y105000D02*
D03*
Y100000D02*
D03*
Y95000D02*
D03*
Y90000D02*
D03*
Y85000D02*
D03*
Y80000D02*
D03*
Y75000D02*
D03*
Y70000D02*
D03*
Y65000D02*
D03*
Y60000D02*
D03*
Y55000D02*
D03*
Y50000D02*
D03*
D24*
X64807Y34000D02*
D03*
X59295D02*
D03*
X64807Y46000D02*
D03*
X59295D02*
D03*
X64807Y39000D02*
D03*
X59295D02*
D03*
X64807Y29000D02*
D03*
X59295D02*
D03*
Y70000D02*
D03*
X64807D02*
D03*
X59295Y50800D02*
D03*
X64807D02*
D03*
Y55600D02*
D03*
X59295D02*
D03*
Y65200D02*
D03*
X64807D02*
D03*
D25*
X64512Y60400D02*
D03*
X59394D02*
D03*
D26*
X50414Y63240D02*
D03*
Y59500D02*
D03*
Y55760D02*
D03*
X39587D02*
D03*
Y63240D02*
D03*
D27*
X40943Y33750D02*
D03*
X48000Y30000D02*
D03*
Y37500D02*
D03*
M02*
