G04*
G04 #@! TF.GenerationSoftware,Altium Limited,Altium Designer,24.9.1 (31)*
G04*
G04 Layer_Color=8388736*
%FSLAX25Y25*%
%MOIN*%
G70*
G04*
G04 #@! TF.SameCoordinates,84196CEC-55BF-4F07-9BBD-11672216EFEB*
G04*
G04*
G04 #@! TF.FilePolarity,Negative*
G04*
G01*
G75*
%ADD15R,0.03943X0.03747*%
%ADD16R,0.05000X0.05000*%
%ADD17C,0.05000*%
%ADD18C,0.06500*%
%ADD19C,0.04600*%
%ADD20C,0.05400*%
D15*
X10500Y40559D02*
D03*
Y35441D02*
D03*
X6000Y40559D02*
D03*
Y35441D02*
D03*
D16*
X24000Y64500D02*
D03*
Y39000D02*
D03*
D17*
Y54500D02*
D03*
Y29000D02*
D03*
D18*
X27500Y145000D02*
D03*
X37500D02*
D03*
X47500D02*
D03*
D19*
X11000Y145000D02*
D03*
Y140000D02*
D03*
Y135000D02*
D03*
Y130000D02*
D03*
Y125000D02*
D03*
Y120000D02*
D03*
Y115000D02*
D03*
Y110000D02*
D03*
Y105000D02*
D03*
Y100000D02*
D03*
Y95000D02*
D03*
Y90000D02*
D03*
Y85000D02*
D03*
Y80000D02*
D03*
Y75000D02*
D03*
Y70000D02*
D03*
Y65000D02*
D03*
Y60000D02*
D03*
Y55000D02*
D03*
Y50000D02*
D03*
D20*
X18000Y73500D02*
D03*
Y47500D02*
D03*
X52500Y48000D02*
D03*
X57000Y132500D02*
D03*
X11000Y28500D02*
D03*
M02*
