M48
;Layer_Color=9474304
;FILE_FORMAT=2:5
INCH
;TYPE=PLATED
T01F00S00C0.01200
T02F00S00C0.02800
T03F00S00C0.03000
T04F00S00C0.04500
%
T01
X0294000Y0314201
X0333000Y0373201
T02
X0328500Y0288701
X0294000Y0288201
X0287000Y0269201
T03
X0300000Y0269701
Y0279701
Y0295201
Y0305201
X0287000Y0305701
Y0310701
Y0300701
Y0295701
Y0290701
Y0315701
Y0320701
Y0325701
Y0330701
Y0335701
Y0340701
Y0345701
Y0350701
Y0355701
Y0360701
Y0365701
Y0370701
Y0375701
Y0380701
Y0385701
T04
X0303500Y0385701
X0313500
X0323500
M30
